<?xml version="1.0" encoding="utf-8"?>
<!-- Generator: Adobe Illustrator 25.3.1, SVG Export Plug-In . SVG Version: 6.00 Build 0)  -->
<svg version="1.1" id="Ebene_1" xmlns="http://www.w3.org/2000/svg" xmlns:xlink="http://www.w3.org/1999/xlink" x="0px" y="0px"
	 viewBox="0 0 395.8 301.6" style="enable-background:new 0 0 395.8 301.6;" xml:space="preserve">
<style type="text/css">
	.st0{fill:#FFFFFF;}
	.st1{fill:url(#SVGID_1_);}
	.st2{fill:url(#SVGID_2_);}
	.st3{fill:url(#SVGID_3_);}
</style>
<g>
	<path d="M196.8,282.1c-1,0-2-0.2-2.8-0.7c-11.8-6-21.7-12.1-30.1-18.7c-9-7.1-18.4-14.6-29.5-23.8c-6.8-5.6-14.6-10.4-23.8-14.5
		c-9.6-4.3-19.4-7.5-29.1-9.5c-3.7-0.8-8.4-3.2-9.8-10.7c-0.1-0.4-0.1-0.8-0.1-1.2v-2.1c0-0.5,0.1-0.9,0.2-1.4
		c1.8-7.9,7.7-13.3,15.9-14.2c1-0.1,2-0.2,3-0.2c0.2,0,0.5,0,0.7,0c0.4-0.3,0.9-0.6,1.3-0.9l0.6-0.3c0.3-0.1,0.6-0.3,0.9-0.4
		c0.3-0.1,1.5-0.7,1.5-0.7c6.6-3,12.3-8.2,17.8-16.4c3.3-4.8,7.3-11.3,9.5-18.4c1.2-4,2-8.5,2.5-13.7c0.3-3.2,0.3-6.5,0.2-10
		c0-1.7,0-3.4,0-5.1c0-0.9,0.1-1.7,0.2-2.2l0-0.3c0.2-1.5,1-2.8,2-3.8c-2.2-3.7-2.2-7.4-1.9-10.7c0.2-1.6,0.3-3.2,0.4-4.8
		c0.2-2.6,0.4-5.3,0.8-7.9c0.4-3.3,0.9-6.8,1.7-11.1c0.5-2.6,2.3-4.4,4.1-5.5c-1.9-3.4-2.1-7.2-0.4-11.1c0.8-1.9,1.5-3.9,2.2-6
		l0.1-0.2c0.3-0.8,0.5-1.6,0.8-2.4c2.1-6.1,5.9-10.6,10-15.1C151.2,32,158,25,167.2,20.6c4.6-2.2,9.2-3.4,13.6-3.4
		c7.2,0,13.7,3,19.3,8.8c9.9,10.3,23.4,15.9,35.4,20.8c10.5,4.3,21.8,7.3,34.6,9c4.9,0.7,10.1,1.3,15.5,1.3c1.4,0,2.8,0,4.1-0.1
		c0.3,0,0.7,0,1,0c6,0,11.1,3.4,14.5,9.5c2.9,5.2,4.9,11,6.2,17.8c0.4,2.1-0.3,4.2-1.8,5.6c1.2,1.4,3,4.1,2.9,8.2
		c-0.3,11.2-4.1,21.2-11.7,30.8c-3.9,4.9-8.5,9.9-15,12.9c-3.2,1.5-6.4,2.2-9.6,2.2h0c-4.2,0-8.2-1.3-11.9-3.8c-1.4-1-2.6-2.3-3.6-4
		c-2-3.2-4.5-6.2-7.2-9c-1.6,9.3-1.2,18.6-0.5,27.3c0.2,2.9-1.6,5.5-4.3,6.4c-0.1,0-0.3,0.1-0.4,0.1c0.4,0.4,0.9,0.8,1.4,1.2
		c1.3,1.1,4.3,4.2,3.9,8.3c-0.5,4.7-1.1,9.3-1.7,13.8l0,0.3c-0.3,2.3-0.6,4.5-0.9,6.8c-0.4,2.9-1.8,5-4.1,6.1c1.3,2.5,1.1,5-0.6,8.3
		c-0.2,0.4-0.4,0.8-0.7,1.3c-4.8,9.8-11,17.2-18.8,22.3c1.3,0.5,2.5,1,3.8,1.5c8.3,3.4,12.4,9.3,12.1,17.6c-0.1,1.5-0.3,2.8-0.6,3.8
		l-0.1,0.6c-0.8,3.8-2.7,5.7-4.6,6.7c-0.1,2.3-1.1,4.4-2.9,6.1c-6.4,6.1-15.2,13.3-27.4,15.6c-0.9,0.4-1.8,0.7-2.8,0.7H196.8z"/>
	<path class="st0" d="M180.8,20.2c6.3,0,12.1,2.6,17.1,7.9c10.3,10.8,24.2,16.5,36.4,21.5c10.7,4.4,22.3,7.4,35.4,9.2
		c5.1,0.7,10.4,1.3,15.9,1.3c1.4,0,2.9,0,4.3-0.1c0.3,0,0.5,0,0.8,0c4.8,0,9,2.8,11.9,8c2.7,4.9,4.6,10.5,5.8,16.9
		c0.3,1.6-0.7,3.3-2.3,3.7c-0.5,0.2-1,0.3-1.5,0.3c0.7,0.8,1.4,1.5,2.2,2.3c1.2,1.3,2.9,3.4,2.8,6.9c-0.3,10.5-3.9,20-11,29
		c-3.7,4.6-7.9,9.3-13.9,12c-2.8,1.3-5.6,1.9-8.4,1.9c-3.6,0-7-1.1-10.2-3.3c-1-0.7-2-1.7-2.8-3.1c-3.1-4.9-7.1-9.1-11.5-13.4
		c-3,11.4-2.5,22.8-1.8,33.6c0.1,1.5-0.8,2.9-2.2,3.3c-1.6,0.5-3.1,0.8-4.6,0.8c-0.6,0-1.1,0-1.7-0.1c1.9,1.9,3.9,3.8,6.2,5.8
		c1,0.8,3.1,3.1,2.9,5.7c-0.5,4.6-1.1,9.3-1.7,13.8c-0.3,2.4-0.6,4.7-0.9,7.1c-0.4,2.8-2.1,4.3-5.2,4.3c0,0,0,0,0,0l-0.2,0
		c-0.6,0-1.1,0-1.6-0.1c0.1,0.1,0.1,0.1,0.2,0.2c0.5,0.5,0.8,0.9,1.2,1.2c2.8,2.8,3,4.3,1.2,7.9c-0.2,0.4-0.4,0.8-0.7,1.3
		c-5.6,11.5-13.2,19.4-23.2,24.2c3.2,1.2,6.5,2.4,9.7,3.7c7.1,2.9,10.5,7.7,10.2,14.7c0,1.2-0.3,2.3-0.5,3.3l-0.1,0.6
		c-0.7,3.6-2.8,4.9-4.8,5.2c0.3,1.6,0.3,3.9-1.8,6c-6.2,5.9-14.7,12.9-26.3,15c-0.5,0.3-1.1,0.5-1.8,0.5h-7.4c-0.5,0-1-0.1-1.5-0.4
		c-11.7-5.9-21.4-11.9-29.6-18.4c-9-7.1-18.3-14.6-29.4-23.8c-7-5.8-15-10.7-24.5-15c-9.8-4.4-19.8-7.7-29.7-9.7
		c-4.1-0.8-6.6-3.6-7.5-8.3c0-0.2-0.1-0.4-0.1-0.6v-2.1c0-0.2,0-0.5,0.1-0.7c1.5-6.7,6.3-11.1,13.3-11.9c0.9-0.1,1.8-0.2,2.7-0.2
		c0.7,0,1.3,0,1.9,0.1c0.3-0.5,0.8-1,1.4-1.2l0.4-0.2c0.3-0.2,0.6-0.3,0.9-0.5c0.3-0.2,0.7-0.3,1-0.5l0.5-0.2
		c7.1-3.2,13.2-8.8,19.1-17.5c3.4-5,7.6-11.7,9.8-19.2c1.3-4.2,2.1-8.9,2.6-14.2c0.3-3.4,0.3-6.7,0.2-10.3c0-1.6,0-3.3,0-5
		c0-0.7,0.1-1.2,0.2-1.7c0-0.1,0-0.3,0.1-0.4c0.2-1.5,1.4-2.6,2.9-2.8l0.3,0c0-0.2,0-0.4,0-0.5c0-0.1-0.2-0.5-0.9-1.4
		c-2.4-3.2-2.5-6.6-2.2-9.9c0.2-1.6,0.3-3.2,0.4-4.9c0.2-2.6,0.4-5.2,0.7-7.8c0.4-3.2,0.9-6.7,1.7-10.9c0.4-2.1,2.4-3.4,3.5-3.9
		c0.9-0.4,1.8-0.6,2.7-0.6c0,0-0.1-0.1-0.1-0.1c-3.6-3.4-4.4-7.2-2.6-11.4c0.9-2,1.5-4,2.3-6.2c0.3-0.9,0.6-1.7,0.9-2.6
		c2-5.6,5.6-9.9,9.4-14.1c5.4-6,11.9-12.8,20.6-17C172.7,21.2,176.8,20.2,180.8,20.2 M180.8,14.2l0,6L180.8,14.2
		c-4.8,0-9.8,1.2-14.9,3.7c-9.7,4.7-16.7,11.9-22.5,18.4c-4.1,4.5-8.3,9.5-10.6,16.1c-0.3,0.8-0.6,1.7-0.9,2.5l0,0.1
		c-0.7,2.1-1.4,4-2.1,5.8c-1.7,3.9-1.8,7.7-0.6,11.3c-1.6,1.5-2.9,3.4-3.3,5.9c-0.8,4.3-1.3,7.9-1.7,11.3c-0.3,2.7-0.5,5.4-0.8,8
		c-0.1,1.6-0.3,3.2-0.4,4.8c-0.3,3.1-0.3,6.8,1.3,10.6c-0.7,1.1-1.2,2.4-1.4,3.8l0,0.1l0,0.1c-0.1,0.6-0.3,1.5-0.3,2.7
		c0,1.8,0,3.5,0,5.2c0,3.4,0.1,6.6-0.2,9.7c-0.5,5-1.3,9.2-2.4,13.1c-2,6.7-5.9,12.9-9.1,17.6c-5.2,7.8-10.5,12.6-16.6,15.4
		l-0.5,0.2l-0.1,0.1c-0.3,0.1-0.6,0.3-1,0.4c-0.3,0.2-0.7,0.3-1,0.5l-0.4,0.2c-0.3,0.2-0.7,0.4-1,0.6c-1,0-2,0.1-3.1,0.2
		c-9.5,1.1-16.4,7.3-18.4,16.5c-0.1,0.7-0.2,1.3-0.2,2v2.1c0,0.6,0.1,1.2,0.2,1.7c1.4,7.1,5.7,11.8,12.2,13.1
		c9.5,1.9,19.1,5.1,28.5,9.3c8.9,4,16.5,8.6,23.1,14.1c11.1,9.2,20.5,16.8,29.5,23.9c8.6,6.7,18.6,13,30.6,19c1.3,0.7,2.7,1,4.2,1
		h7.4c1.3,0,2.6-0.3,3.7-0.8c12.8-2.5,21.9-10,28.5-16.4c1.9-1.8,3.1-4,3.6-6.5c2.4-1.8,4-4.5,4.7-7.9l0.1-0.6
		c0.2-1.1,0.6-2.6,0.6-4.4c0.2-6.4-1.8-15-12.8-19.9c6.2-5.1,11.3-11.8,15.4-20.2c0.2-0.5,0.4-0.9,0.6-1.2c1.6-3.2,2.2-5.9,1.6-8.5
		c1.9-1.6,3.1-4,3.5-6.9c0.3-2.3,0.6-4.6,0.9-7l0-0.1c0.6-4.5,1.2-9.2,1.8-13.9c0.3-3.2-0.8-6.5-3.3-9.3c1.9-1.9,2.9-4.5,2.8-7.3
		c-0.5-6.5-0.8-13.3-0.3-20.1c0.9,1.1,1.7,2.3,2.5,3.5c1.2,2,2.8,3.6,4.5,4.8c4.2,2.9,8.7,4.4,13.6,4.4c3.6,0,7.3-0.8,10.9-2.5
		c7.1-3.3,12-8.5,16.1-13.7c8-10,12.1-20.7,12.4-32.6c0.1-3-0.7-5.8-2.2-8.3c1-1.8,1.4-4,1-6.2c-1.3-7.1-3.4-13.2-6.5-18.7
		c-3.9-7-10.2-11.1-17.2-11.1c-0.4,0-0.8,0-1.2,0c-1.3,0.1-2.6,0.1-3.9,0.1c-5.2,0-10.3-0.6-15.1-1.2c-12.6-1.7-23.7-4.6-33.9-8.8
		c-11.7-4.8-24.9-10.3-34.4-20.1C196.1,17.6,188.7,14.2,180.8,14.2L180.8,14.2z"/>
</g>
<linearGradient id="SVGID_1_" gradientUnits="userSpaceOnUse" x1="214.432" y1="249.7916" x2="277.5381" y2="74.255">
	<stop  offset="5.618000e-03" style="stop-color:#EEC980"/>
	<stop  offset="0.1854" style="stop-color:#E5C080"/>
	<stop  offset="0.5955" style="stop-color:#C5860B"/>
	<stop  offset="0.7976" style="stop-color:#E2B466"/>
	<stop  offset="0.8708" style="stop-color:#EDC686"/>
	<stop  offset="1" style="stop-color:#F2E4CD"/>
</linearGradient>
<path class="st1" d="M226.8,239.9c5.3,2.1,6.3,4.9,6.1,8.4c0,0.6-0.2,1.4-0.4,2.2l-0.1,0.7c0,0,0,0.1,0,0.1
	c-1.8-0.2-3.5,0.1-4.9,0.3c-0.6,0.1-1.1,0.2-1.6,0.3c-1.7,0.2-3,1.7-2.9,3.5l0,0.6c0.1,1.6,1.4,2.9,3.1,3l0.3,0c0.3,0,0.6,0,0.9,0.1
	l0.3,0c0,0,0,0,0,0c-8.5,8.1-15.6,12.1-23.8,13.3c-0.3,0-0.6,0.1-0.9,0.3h-3.9c-6.1-9.2-6.9-17-2.3-23.1
	c5.8-7.8,10.9-12.7,14.3-15.4c1.4,0.5,2.9,1,4.3,1.6C219.1,237,223,238.3,226.8,239.9z"/>
<linearGradient id="SVGID_2_" gradientUnits="userSpaceOnUse" x1="150.231" y1="226.7111" x2="213.3372" y2="51.1745">
	<stop  offset="5.618000e-03" style="stop-color:#EEC980"/>
	<stop  offset="0.1854" style="stop-color:#E5C080"/>
	<stop  offset="0.5955" style="stop-color:#C5860B"/>
	<stop  offset="0.7976" style="stop-color:#E2B466"/>
	<stop  offset="0.8708" style="stop-color:#EDC686"/>
	<stop  offset="1" style="stop-color:#F2E4CD"/>
</linearGradient>
<path class="st2" d="M243.3,152.3c-1.1,0-2-0.3-3-0.9c-2.1-1.4-4.3-2.5-6.6-3.7c-1-0.5-2-1-3-1.5c-1.3-0.7-3-0.4-4,0.7
	c-1,1.1-1.1,2.8-0.3,4c4.3,6.3,9.5,12,16.9,18.5c0.2,0.2,0.5,0.5,0.6,0.7c-0.5,4.3-1.1,8.8-1.7,13c-0.3,1.9-0.5,3.7-0.8,5.7
	c-1.6-0.3-3-1.2-4.7-2.3c-0.4-0.3-0.8-0.5-1.2-0.8l-1.9-1.2c-1.1-0.7-2.6-0.7-3.7,0.1c-1.1,0.8-1.6,2.2-1.2,3.5
	c1.5,5.3,4.5,9,7.3,11.9c0.5,0.5,0.9,0.9,1.3,1.3c0,0,0,0,0.1,0.1c0,0.1-0.1,0.1-0.1,0.2c-0.2,0.4-0.5,0.9-0.7,1.5
	c-5.5,11.2-13,18.5-23,22.5c-1.3,0.5-2.4,1.3-3.3,1.9c-0.3,0.2-0.5,0.4-0.8,0.5c-0.4,0.2-0.7,0.5-0.9,0.9
	c-4.8,3.5-10.8,9.7-16.5,17.3c-3.5,4.7-6.2,12.2-1.5,22.9c-8.1-4.5-15.1-9-21.2-13.8c-8.9-7-18.2-14.5-29.3-23.7
	c-7.5-6.2-16-11.4-25.9-15.9c-10.2-4.6-20.7-8-31.1-10.1c-1-0.2-1.8-0.5-2.3-2.9v-1.3c1-3.8,3.5-6,7.6-6.5c4.7-0.5,8.5,0.8,11.5,4.1
	c1,1.1,2.6,1.4,3.9,0.7c1.3-0.7,2-2.1,1.7-3.6c-0.6-2.7-1.9-4.5-3.4-5.8c7-3.8,13.1-9.7,18.9-18.4c3.6-5.4,8.1-12.6,10.7-21
	c1.4-4.6,2.4-9.7,2.9-15.5c0.3-3,0.3-5.9,0.3-8.8c0.1,0,0.1,0,0.2,0c1.5-0.3,2.6-1.5,2.7-3c0.1-0.9,0.1-1.9,0.2-2.8
	c0.2-2.4,0.3-4.6,0.3-6.9c0-2-1.1-3.7-2.2-5.1c-1-1.3-1.1-2.9-0.9-5.3c0.2-1.6,0.3-3.3,0.4-4.9c0.2-2.5,0.4-5.1,0.7-7.6
	c0.3-2.9,0.8-5.9,1.4-9.5c0.9-0.2,1.9-0.1,3.8,0.9c1.8,1,3.5,1.6,5.4,1.9c1.4,0.2,2.7-0.4,3.4-1.6c0.7-1.2,0.5-2.7-0.4-3.8
	c-0.8-0.9-1.5-1.7-2.3-2.6c-1.8-2.1-3.6-4.3-5.7-6.2c-1.7-1.7-1.8-2.5-1.1-4.1c1-2.2,1.7-4.5,2.5-6.7c0.3-0.8,0.6-1.7,0.9-2.5
	c1.6-4.4,4.6-8,8.1-11.9c5-5.5,11-11.8,18.6-15.5c8.5-4.1,15.7-3,21.8,3.5c11.3,11.7,25.8,17.7,38.6,23c11.3,4.7,23.4,7.8,37,9.7
	c4.7,0.6,9.7,1.2,14.9,1.3c-1.1,0.3-2.3,0.6-3.4,1c-10.7,3.8-19.4,12.5-26,25.8c-4.4,9-6.4,17.4-7,20.1c-0.1,0.1-0.1,0.3-0.2,0.4
	C242.5,127.2,242.5,140.6,243.3,152.3z"/>
<linearGradient id="SVGID_3_" gradientUnits="userSpaceOnUse" x1="225.5036" y1="253.7719" x2="288.6098" y2="78.2353">
	<stop  offset="5.618000e-03" style="stop-color:#EEC980"/>
	<stop  offset="0.1854" style="stop-color:#E5C080"/>
	<stop  offset="0.5955" style="stop-color:#C5860B"/>
	<stop  offset="0.7976" style="stop-color:#E2B466"/>
	<stop  offset="0.8708" style="stop-color:#EDC686"/>
	<stop  offset="1" style="stop-color:#F2E4CD"/>
</linearGradient>
<path class="st3" d="M293.4,122.9c-3.7,4.6-7,8.1-11.5,10.1c-4.4,2-8.4,1.8-12.1-0.8c-0.3-0.2-0.6-0.6-1-1.1
	c-3.9-6.3-9-11.3-14.5-16.6c-0.5-0.5-0.9-0.9-1.4-1.4c1.8-7.5,9.3-33.3,29.2-40.4c4.7-1.7,9.6-2.2,14.8-1.5c1.8,3.3,3.2,6.9,4.2,11
	c-0.7-0.2-1.5-0.4-2.4-0.8c-0.7-0.2-1.5-0.5-2.3-0.7c-1.4-0.4-2.9,0.2-3.7,1.4c-0.8,1.2-0.6,2.9,0.4,3.9c0.8,0.9,1.7,1.8,2.5,2.7
	c2.1,2.3,4.2,4.6,6.4,6.9c0.9,0.9,1,1.4,1,2.2C302.8,106.9,299.7,115.1,293.4,122.9z"/>
<path class="st0" d="M358.7,171.1c-0.5-0.1-1.1-0.1-1.7-0.1c0,0-0.1,0-0.1,0c-1-1.5-1.9-3-2.7-4.3c-1.1-1.8-2-3.4-2.8-4.8
	c-0.8-1.5-1.5-2.7-2.1-3.8c-0.3-0.6-0.6-1.1-0.9-1.6c1.1-0.7,2.3-1.6,3.5-2.5c1.4-1.1,2.6-2.4,3.7-3.8c1.2-1.5,2.2-3.2,2.9-5.1
	c0.8-2,1.2-4.2,1.2-6.6c0-4-0.9-7.5-2.6-10.3c-1.7-2.7-4-4.9-6.8-6.5c-2.5-1.4-5.4-2.5-8.6-3.1c-2.9-0.5-6-0.9-9-0.9
	c0,0-0.1,0-0.1,0c-2.6,0-5.1,0.1-7.4,0.3c-2.3,0.2-4.5,0.4-6.6,0.7c-2.1,0.3-4,0.6-5.8,1c-1.8,0.3-3.4,0.7-4.9,1
	c-0.9,0.2-1.7,0.7-2.4,1.3c-0.2-0.8-0.6-1.4-0.9-1.8c-0.6-0.8-1.3-1.4-2.1-1.8c-0.7-0.3-1.4-0.5-2.1-0.6c-0.3,0-0.5-0.1-0.8-0.1
	c-0.1,0-0.2,0-0.4,0l-19.8,1.4h-16.7c-1.8,0-3.4,0.9-4.3,2.5l-2.4,4.1c-0.4,0.7-0.9,1.4-1.4,2.2c-0.1,0.2-0.2,0.4-0.4,0.6
	c-1.6-2.7-3.7-5-6.2-6.7c-2.6-1.7-5.6-2.9-9-3.6c-3.1-0.6-6.4-1-9.8-1c-1.3,0-2.8,0.1-4.3,0.2c-1.5,0.1-3,0.2-4.4,0.4
	c-1.5,0.2-3,0.3-4.4,0.5c-1.5,0.2-2.8,0.4-4.1,0.6c-1.3,0.2-2.4,0.4-3.4,0.7c-1.1,0.2-1.9,0.5-2.6,0.7c0,0-0.1,0-0.1,0
	c-0.6,0.2-1,0.3-1.4,0.4c-0.8,0.2-1.5,0.5-2.1,0.8c-1,0.5-1.9,1.3-2.5,2.2c-0.5,0.7-0.9,1.6-1.2,2.6c0,0.1-0.1,0.2-0.1,0.3
	c-1.4-1.9-3.1-3.5-5-4.8c-2.6-1.7-5.6-2.9-9-3.6c-3.1-0.6-6.4-1-9.8-1c-1.3,0-2.8,0.1-4.3,0.2c-1.5,0.1-3,0.2-4.4,0.4
	c-1.5,0.2-3,0.3-4.4,0.5c-1.5,0.2-2.8,0.4-4.1,0.6c-1.3,0.2-2.4,0.4-3.4,0.7c-1.1,0.2-1.9,0.5-2.6,0.7c0,0-0.1,0-0.1,0
	c-0.6,0.2-1,0.3-1.4,0.4c-0.8,0.2-1.5,0.5-2.1,0.8c-1,0.5-1.9,1.3-2.5,2.2c-0.5,0.7-0.9,1.6-1.2,2.6c-0.2,0.8-0.5,1.8-0.8,2.9
	c-0.3,1.1-0.6,2.2-0.9,3.3c0,0,0,0.1,0,0.1c-0.3,1.2-0.7,2.5-1,3.8c-0.1,0.4-0.2,0.9-0.2,1.4c0,3.3,2.5,5.7,5.9,5.7c0,0,0.1,0,0.1,0
	c-0.1,0.9-0.1,1.8-0.2,2.8c-0.1,1.8-0.3,3.7-0.4,5.7c-0.1,2-0.3,4-0.4,5.8l-0.8,9.7c0,0,0,0.1,0,0.1c-0.1,1.1-0.1,2.1-0.2,3
	c-0.5-1.4-1-2.8-1.4-4.2c-0.7-2.2-1.5-4.3-2.2-6.5c-0.7-2.1-1.4-4.3-2.2-6.6c-0.7-2.2-1.5-4.6-2.2-7.1c-1.4-4.8-2.9-9.3-4.4-13.3
	c-1.4-3.8-2.8-7.4-4.1-10.7c-0.5-1.8-1.7-3.3-3.2-4.1c-1.1-0.6-2.3-0.9-3.5-0.9h-0.7c-0.9,0-1.9,0.1-3.2,0.4c-1,0.2-2,0.4-3,0.7
	c-1,0.3-1.8,0.5-2.6,0.7c-0.5,0.2-0.9,0.3-1,0.3c-0.1,0-0.2,0.1-0.4,0.1c-0.2,0.1-0.5,0.2-0.8,0.3c-0.5,0.2-1,0.4-1.5,0.7
	c-0.6,0.3-1.2,0.8-1.8,1.3c-0.8,0.7-1.4,1.6-1.8,2.5c-0.9,2.2-2,4.5-3,7.1c-1.1,2.6-2.3,5.7-3.5,9.2c-0.6,1.7-1.2,3.3-1.7,4.8
	c-0.6,1.5-1.2,3-1.8,4.5c-0.6,1.5-1.2,2.9-1.8,4.4c-0.2,0.5-0.4,1-0.6,1.6c-0.3,0-0.6,0-0.9,0c-0.8,0-1.5,0-2.2,0.1
	c-0.7,0-1.3,0.1-1.9,0.1c-0.4,0-0.8,0.1-1.1,0.2c-0.2,0-0.3,0.1-0.5,0.2c-0.2-1.4-0.5-3.3-0.9-5.8c-0.4-2.8-1-6.6-1.6-11.3
	c0,0,0-0.1,0-0.1c0-0.2-0.1-0.7-0.2-1.4c-0.1-0.7-0.2-1.5-0.4-2.4c-0.1-1-0.3-2-0.5-3.2c-0.2-1.1-0.3-2.2-0.5-3.2l-0.4-2.9
	c-0.1-0.8-0.2-1.5-0.2-1.9c0,0,0-0.1,0-0.1c-0.3-1.9-0.9-3.3-1.9-4.4c-1.2-1.3-2.9-2-4.8-2c-0.3,0-0.6,0-0.9,0
	c-0.3,0-0.5,0.1-0.8,0.1c-0.1,0-0.2,0-0.3,0.1l-12.6,3.4c-1.4,0.4-2.6,1.4-3.2,2.7l-5.6,11.7l-4.2-13.6c-0.6-2.1-2.1-3.7-4.2-4.2
	c-0.7-0.2-1.4-0.2-2.2-0.2c-0.5,0-1,0.1-1.5,0.2l-10.1,3.1c-1.9,0.6-3.3,2.2-3.5,4.2c0,0.1,0,0.2-0.1,0.3c-0.1,0.4-0.2,0.9-0.3,1.5
	c-0.1,0.6-0.3,1.3-0.5,2.1c-0.2,0.8-0.4,1.6-0.5,2.4l-1.5,6.5c0,0,0,0,0,0.1l-5,23.2c-0.2,0.9-0.4,1.9-0.6,3.2
	c-0.2,1.1-0.4,2.3-0.7,3.6c-0.2,1.2-0.5,2.4-0.8,3.6c-0.2,1-0.5,1.9-0.7,2.6c0,0,0,0.1,0,0.1c-0.2,0.5-0.3,1-0.5,1.5
	c-0.2,0.5-0.3,1.1-0.5,1.6c-0.1,0.5-0.2,1-0.3,1.4c-0.1,0.6-0.2,1.2-0.2,1.8c0,2.2,1,3.7,1.8,4.5c0.6,0.6,1.3,1.1,2,1.4
	c0.7,0.3,1.7,0.7,2.8,1.1c1.1,0.4,2.2,0.7,3.3,1c1.2,0.3,2.3,0.6,3.4,0.9c1.4,0.3,2.5,0.4,3.4,0.4c3.5,0,5.4-2.3,5.9-4.3
	c0,0,0,0,0-0.1l2.7-11.4c0.1,0.2,0.1,0.4,0.2,0.7c0.4,1.1,0.8,2.6,1.3,4.2c0.4,1.3,1,2.4,1.9,3.4c1.3,1.3,3,2.1,5,2.1
	c1.3,0,2.7-0.4,3.9-1.2c1.1-0.7,2-1.6,2.8-2.8c0.1-0.2,0.2-0.3,0.3-0.5l7.6-14c0,0.2,0,0.4,0.1,0.5c0.1,1.4,0.3,2.7,0.5,4.1
	c0.2,1.5,0.3,3.1,0.5,4.8c0.2,1.8,0.4,3.6,0.6,5.2c0.3,1.8,0.7,3.3,1.2,4.6c1.1,2.9,3.5,4.6,6.2,4.6c0.6,0,0.9-0.1,2.1-0.4
	c0.7-0.2,1.5-0.4,2.5-0.6c0.9-0.2,1.9-0.5,3-0.8c1.2-0.3,2.3-0.7,3.3-1c1-0.3,1.9-0.7,2.7-1c0.6-0.2,1.8-0.8,2.8-1.9
	c1.1,0.7,2.4,1.4,3.7,2.1c1.9,1,4.3,2,7.1,3c0.6,0.2,1.3,0.4,2.1,0.4c1.2,0,2.4-0.4,3.4-1c1.1-0.7,1.8-1.7,2.3-2.9
	c0.8-1.8,1.5-3.5,2.2-5.2c0.3-0.7,0.6-1.5,0.9-2.3c0.3,0,0.7,0,1.1,0c0.8,0,1.7,0,2.5,0c0.7,0,1.3,0,1.8,0l1.2,0l0.1,0
	c0.5,0,1,0,1.6,0c0.5,0,1.1,0,1.8,0c0,0,0,0,0,0.1c0.3,0.9,0.6,1.7,0.8,2.5c0.3,0.7,0.5,1.5,0.8,2.2c0.2,0.6,0.5,1.3,0.7,2
	c0.2,0.8,0.6,1.5,1,2.2c1.1,1.6,2.9,2.5,4.9,2.5h0.2c0.7,0,1.3-0.1,2.3-0.4c0.5-0.1,1.1-0.3,1.8-0.5c0.7-0.2,1.4-0.4,2.1-0.7
	c0.7-0.2,1.3-0.5,1.9-0.7l8.6-2.8c0,0,0,0,0.1,0c0.2,1.9,1.2,3.2,2,3.9c0.8,0.7,2.2,1.5,4.2,1.5c0.9,0,1.7-0.1,2.5-0.2
	c0.8-0.1,1.5-0.4,2.3-0.6c0.6-0.2,1.2-0.5,1.9-0.7c0.6-0.2,1.2-0.5,2-0.7l2.5-0.8c1.3-0.4,2.5-0.8,3.4-1.2c1.4-0.5,3.1-1.1,4-3
	l0.7-1.2c0.3-0.6,0.5-1.3,0.6-2l0.9-10.1c3.3-0.1,6.6-0.7,9.8-1.7c3.7-1.1,7.2-2.9,10.3-5.1c1.7-1.2,3.2-2.6,4.5-4
	c1.4-1.5,2.6-3.2,3.6-5.1c0.6-1.2,1.2-2.5,1.6-3.9c0,0.7-0.1,1.4-0.1,2.1c-0.1,2-0.3,4-0.4,5.8l-0.8,9.7c0,0,0,0.1,0,0.1
	c-0.1,1.7-0.2,3.3-0.3,4.6c-0.1,1.4-0.2,2.9-0.3,4.3l-0.4,6.9c0,0.1,0,0.2,0,0.3c0,2.5,1.1,4,2,4.9c0.8,0.7,2.2,1.5,4.2,1.5
	c0.9,0,1.7-0.1,2.5-0.2c0.8-0.1,1.5-0.4,2.3-0.6c0.6-0.2,1.2-0.5,1.9-0.7c0.6-0.2,1.2-0.5,2-0.7l2.5-0.8c1.3-0.4,2.5-0.8,3.4-1.2
	c1.4-0.5,3.1-1.1,4-3l0.7-1.2c0.3-0.6,0.5-1.3,0.6-2l0.9-10.1c3.3-0.1,6.6-0.7,9.8-1.7c3.7-1.1,7.2-2.9,10.3-5.1
	c1.7-1.2,3.2-2.6,4.5-4c0.1-0.1,0.2-0.2,0.3-0.3c0,0.2,0,0.4,0,0.6c0,2.2,1.4,4.7,4.5,5.6l-0.6,7.8c-0.3,0.6-0.7,1.1-1,1.7
	c-0.5,0.9-1,1.7-1.5,2.4c-0.5,0.8-0.9,1.5-1.2,2c-0.9,1.6-1.1,3.2-0.7,4.6c0.2,0.8,0.6,1.6,1.1,2.3c0.9,1.2,2.3,2,3.7,2.2
	c0.1,0,0.1,0,0.2,0c2.2,0.2,4.5,0.4,7,0.6c2.5,0.2,5.1,0.4,7.8,0.6c2.6,0.2,5.3,0.3,8,0.4c2.7,0.1,5.3,0.2,7.8,0.2
	c0.7,0,1.3,0,1.9,0c0.9-0.1,1.8-0.2,2.6-0.5c1-0.3,1.9-0.8,2.8-1.5c0.8-0.6,1.5-1.4,2-2.3c0.4-0.6,0.9-1.4,1.5-2.3
	c0.6-1,1.2-2,1.8-2.9c0.5-0.9,1-1.7,1.4-2.3c0.2-0.3,0.3-0.5,0.4-0.7c0.6-0.9,1-1.9,1-3v-1.6c0-2.8-2.2-5-5-5h-15.3l0.2-2.5l1.2,0
	l2.2-0.1c0.9,0,1.7-0.1,2.4-0.3c1.3-0.4,2.5-1.1,3.3-2.2c0.4-0.5,0.7-1.1,1.1-1.9c0.4-1,0.8-1.9,1.3-2.9l1.3-2.8
	c0.4-0.9,0.8-1.7,1.1-2.4c0.4-0.9,0.6-1.6,0.8-2.2c0.2-0.7,0.3-1.4,0.3-2.1c0-2.2-1-4.1-2.8-5.2c-1.1-0.6-2.2-1-3.3-1
	c-0.4,0-1,0-1.8,0c-0.8,0-1.7,0.1-2.8,0.1c-0.6,0-1.2,0-1.9,0.1c0-0.2,0-0.3,0-0.5c1.6-0.1,3-0.1,4.4-0.2c2.4-0.1,4.7-0.2,6.8-0.3
	c0.6,0,2.1-0.1,3.5-0.8c0.5,0.8,1.3,1.4,2.2,1.9c0.9,0.4,1.8,0.6,2.7,0.6c0.2,0,0.5,0,0.7-0.1c0.6-0.1,1.2-0.2,1.8-0.3
	c-0.1,0.8-0.1,1.6-0.2,2.3c-0.1,1.2-0.2,2.3-0.2,3.4l-0.6,6.9c0,0,0,0,0,0.1c-0.2,2.4-0.3,4.6-0.5,6.8c-0.2,2.2-0.3,4.6-0.5,6.9
	c-0.1,1.7-0.2,3.3-0.3,4.5c-0.1,1.3-0.2,2.5-0.3,3.5c-0.1,1.1-0.2,2.2-0.3,3.3c-0.1,1.1-0.1,2.3-0.1,3.6c0,2.2,1,4.1,2.6,5.2
	c1.1,0.7,2.4,1.1,3.8,1.1c1,0,1.9-0.2,2.9-0.5c0.6-0.2,1.1-0.4,1.5-0.5c0.6-0.2,1.5-0.6,2.7-1c1.2-0.4,2.4-0.9,3.7-1.3
	c1.3-0.4,2.4-0.8,3.3-1.2c1.5-0.5,1.8-0.6,2.1-0.8c1.6-0.7,2.7-2,3.2-3.6c0.2-0.5,0.3-1.1,0.3-1.6c0,0,0-0.1,0-0.1l0.4-4.1l4.2,8.8
	c0,0,0,0.1,0,0.1c0.1,0.2,0.2,0.4,0.3,0.6c0.3,0.7,0.7,1.4,1.2,2c0.6,0.8,1.3,1.5,2.1,2c1.2,0.8,2.5,1.2,4,1.2
	c0.6,0,1.3-0.1,1.9-0.2c0.8-0.2,1.5-0.5,2.2-0.9c1.1-0.6,2.2-1.2,3.1-1.6c0.9-0.5,1.8-0.9,2.5-1.2c0.8-0.3,1.5-0.7,2.2-0.9
	c0.8-0.3,1.6-0.7,2.3-1.1c0.2-0.1,0.5-0.3,1.2-0.6c0.7-0.3,1.4-0.6,2-0.9c0.7-0.4,1.4-0.7,2-1.1c2.6-1.7,3-3.8,3-5
	C363.7,173.7,361.6,171.4,358.7,171.1z"/>
<path d="M74.3,122.8c0.1,0,0.3,0,0.4-0.1c0.1,0,0.2,0,0.3,0c0.5,0,0.9,0.2,1.2,0.5c0.3,0.3,0.5,0.9,0.6,1.6c0.1,0.5,0.1,1.2,0.3,2
	c0.1,0.9,0.3,1.8,0.4,2.9c0.1,1.1,0.3,2.2,0.5,3.3c0.2,1.1,0.3,2.2,0.5,3.1c0.1,1,0.3,1.8,0.4,2.5c0.1,0.7,0.2,1.1,0.2,1.3
	c0.6,4.8,1.1,8.6,1.6,11.5c0.5,2.9,0.8,5,1,6.4l2.7,21.9l-0.4,1.3c-0.1,0.2-0.4,0.4-1.1,0.7c-0.6,0.3-1.4,0.6-2.3,0.9
	c-0.9,0.3-1.9,0.6-3,0.9c-1.1,0.3-2.1,0.6-3,0.8c-0.9,0.2-1.7,0.4-2.3,0.6c-0.6,0.1-1,0.2-1,0.2c-0.6,0-1.2-0.5-1.5-1.4
	c-0.4-0.9-0.7-2.1-0.9-3.6c-0.2-1.5-0.4-3-0.6-4.8c-0.1-1.7-0.3-3.4-0.5-5c-0.2-1.3-0.3-2.7-0.4-4c-0.1-1.3-0.3-2.7-0.4-4.1
	l-1.6-11.8l-15,27.5c-0.5,0.6-0.9,1.1-1.4,1.4c-0.5,0.3-0.9,0.4-1.3,0.4c-0.6,0-1.1-0.2-1.4-0.5c-0.3-0.4-0.6-0.8-0.7-1.3
	c-0.5-1.7-1-3.1-1.3-4.3c-0.4-1.2-0.7-2.2-1-3.2c-0.3-1-0.6-1.9-0.9-2.8c-0.3-0.9-0.6-2-0.9-3.2c-0.3-1.2-0.7-2.6-1.1-4.3
	c-0.4-1.6-0.9-3.6-1.5-6l-1.3,5.8l-5.8,24.7c-0.1,0.3-0.4,0.5-1,0.5c-0.6,0-1.3-0.1-2.3-0.3c-1-0.2-2-0.5-3.1-0.8
	c-1.1-0.3-2.1-0.6-3.1-1c-1-0.3-1.8-0.6-2.4-0.9c-0.1-0.1-0.3-0.2-0.5-0.4c-0.2-0.2-0.3-0.5-0.3-1c0-0.1,0-0.3,0.1-0.7
	c0.1-0.4,0.2-0.8,0.3-1.2c0.1-0.5,0.3-1,0.4-1.4c0.1-0.5,0.3-0.9,0.4-1.3c0.4-0.9,0.7-2,1-3.2c0.3-1.2,0.5-2.5,0.8-3.8
	c0.2-1.3,0.5-2.5,0.7-3.6c0.2-1.2,0.4-2.1,0.6-2.9l5-23.2l1.5-6.6c0.2-0.8,0.4-1.7,0.5-2.4c0.2-0.8,0.3-1.5,0.5-2.2
	c0.1-0.6,0.2-1.2,0.3-1.6c0.1-0.4,0.1-0.6,0.1-0.7l10.1-3.1c0.4,0,0.7,0,1,0.1c0.3,0.1,0.5,0.3,0.5,0.7l8.1,25.9l11.1-23.3
	L74.3,122.8z"/>
<path d="M88.9,179.4c0.4-0.7,0.7-1.5,1.1-2.4c0.4-0.9,0.7-1.8,1.1-2.9l1.1-2.7c-0.5-0.7-1-1.5-1.5-2.4c-0.5-0.9-1-1.7-1.4-2.6
	c-0.4-0.9-0.7-1.8-1-2.7c-0.3-0.9-0.4-1.8-0.4-2.6c0-0.1,0.2-0.1,0.6-0.1c0.4,0,0.9-0.1,1.6-0.1c0.6,0,1.3,0,2.1-0.1
	c0.7,0,1.4,0,2.1,0c0.6,0,1.4,0,2.2-0.1c0.6-1.6,1.2-3.2,1.8-4.6c0.6-1.5,1.2-2.9,1.8-4.4c0.6-1.5,1.2-3,1.8-4.6
	c0.6-1.6,1.2-3.2,1.8-5c1.1-3.3,2.2-6.3,3.3-8.8c1.1-2.5,2.1-4.9,3-7.1c0.1-0.3,0.3-0.5,0.5-0.7c0.3-0.2,0.5-0.4,0.8-0.6
	c0.3-0.2,0.6-0.3,0.9-0.4c0.3-0.1,0.5-0.2,0.7-0.2c0.1,0,0.5-0.1,1.2-0.4c0.7-0.2,1.5-0.4,2.4-0.7c0.9-0.2,1.8-0.5,2.7-0.6
	c0.9-0.2,1.6-0.3,2.2-0.3h0.7c0.4,0,0.8,0.1,1.2,0.3c0.4,0.2,0.7,0.6,0.8,1.2c1.3,3.3,2.7,6.9,4.1,10.9c1.5,3.9,2.9,8.3,4.3,13
	c0.8,2.5,1.5,4.9,2.2,7.2c0.7,2.3,1.5,4.5,2.2,6.6c0.7,2.2,1.5,4.3,2.2,6.5c0.7,2.2,1.5,4.4,2.3,6.7c0.2,1,0.5,1.7,0.7,2.3
	c0.3,0.6,0.5,1,0.7,1.3c0.2,0.3,0.4,0.6,0.5,0.7c0.1,0.1,0.2,0.3,0.2,0.5c0,0.2-0.3,0.3-0.8,0.5l-8.7,2.8c-0.6,0.2-1.3,0.5-2,0.7
	c-0.7,0.2-1.3,0.5-1.9,0.6c-0.6,0.2-1.1,0.3-1.6,0.5c-0.4,0.1-0.8,0.2-1,0.2h-0.2c-0.4,0-0.6-0.1-0.8-0.3c-0.2-0.2-0.3-0.5-0.3-0.7
	c-0.3-0.9-0.5-1.7-0.8-2.4c-0.3-0.7-0.5-1.4-0.8-2.1c-0.3-0.7-0.5-1.5-0.8-2.3c-0.3-0.8-0.5-1.8-0.7-2.9c-0.1-0.1-0.2-0.2-0.4-0.3
	c-0.2-0.1-0.5-0.2-0.9-0.2c-0.3-0.1-0.7-0.1-1.1-0.1c-0.4,0-0.7,0-1.1,0c-1,0-1.9,0-2.5,0c-0.6,0-1.2,0-1.7,0c-0.5,0-1,0-1.4,0
	c-0.4,0-1,0-1.6,0c-0.8,0-1.6,0-2.4,0c-0.8,0-1.6,0-2.2-0.1l-2.3-0.1c-0.7,1.9-1.4,3.8-2.1,5.5c-0.7,1.7-1.5,3.5-2.3,5.3
	c-0.1,0.2-0.2,0.4-0.4,0.5c-0.2,0.1-0.4,0.2-0.6,0.2c-0.2,0-0.3,0-0.3,0c-2.6-0.9-4.8-1.9-6.6-2.8C91.7,181.2,90.2,180.3,88.9,179.4
	z M116.2,143c-0.6,2.4-1.3,4.6-1.9,6.5c-0.6,2-1.2,3.7-1.7,5.2c-0.5,1.5-1,2.8-1.4,3.8c-0.4,1-0.6,1.8-0.8,2.4v0.4
	c0,0.2,0,0.3,0,0.3h9.7c-0.3-1.3-0.6-2.7-1-4c-0.3-1.3-0.7-2.8-1-4.3c-0.3-1.5-0.6-3.1-1-4.8C116.8,146.9,116.4,145.1,116.2,143z"/>
<path d="M197.8,140.3c0,2.3-0.2,4.4-0.7,6.2c-0.4,1.8-1,3.5-1.8,5c-0.8,1.5-1.7,2.8-2.8,4c-1.1,1.2-2.3,2.3-3.7,3.3
	c-2.7,1.9-5.7,3.4-8.9,4.4c-3.2,1-6.4,1.5-9.7,1.5c-0.5,0-1.1,0-1.6,0c-0.5,0-1.1-0.1-1.6-0.1l-1.3,14.8l-0.7,1.3
	c-0.1,0.1-0.5,0.3-1.4,0.6c-0.9,0.3-1.9,0.7-3.2,1.1l-2.6,0.9c-0.8,0.3-1.5,0.6-2.1,0.8c-0.6,0.2-1.2,0.5-1.7,0.6
	c-0.5,0.2-1.1,0.3-1.6,0.4c-0.5,0.1-1.1,0.1-1.6,0.1c-0.4,0-0.7-0.1-0.9-0.3c-0.2-0.2-0.3-0.6-0.3-1.1l0.4-6.9
	c0.1-1.4,0.2-2.8,0.3-4.2c0.1-1.4,0.2-3,0.3-4.8l0.8-9.7c0.2-2,0.3-3.9,0.4-5.9c0.1-2,0.3-3.8,0.4-5.6c0.1-1.8,0.3-3.4,0.4-5
	c0.1-1.6,0.2-2.9,0.3-4.1c-1.5,0.3-2.6,0.6-3.5,0.7c-0.9,0.1-1.5,0.2-2,0.2c-0.6,0-0.9-0.2-0.9-0.7c0.4-1.3,0.7-2.6,1.1-3.9
	c0.3-1.1,0.6-2.2,0.9-3.3c0.3-1.1,0.6-2.1,0.8-2.9c0.1-0.5,0.3-0.9,0.5-1.1c0.2-0.3,0.4-0.5,0.7-0.6c0.3-0.1,0.6-0.3,1.1-0.4
	c0.4-0.1,1-0.3,1.6-0.5c0.5-0.2,1.2-0.3,2.2-0.5c0.9-0.2,2-0.4,3.2-0.6c1.2-0.2,2.5-0.4,3.9-0.6c1.4-0.2,2.8-0.4,4.3-0.5
	c1.4-0.1,2.9-0.3,4.3-0.4c1.4-0.1,2.7-0.1,4-0.1c3.1,0,6,0.3,8.7,0.9c2.8,0.6,5.2,1.5,7.2,2.9c2.1,1.4,3.7,3.2,5,5.5
	C197.2,133.9,197.8,136.8,197.8,140.3z M168.2,152.4c0,0.3,0.1,0.6,0.2,0.8c0.1,0.2,0.4,0.3,0.9,0.3c0.8,0,1.7-0.2,2.7-0.5
	c1-0.3,2.1-0.8,3.1-1.5c1-0.7,2-1.5,2.9-2.5c0.9-1,1.6-2.2,2-3.5c0.2-0.5,0.3-1.2,0.5-2.1c0.1-0.8,0.2-1.8,0.2-3
	c0-1.9-0.7-3.3-2-4.2c-1.3-0.9-3-1.3-5.1-1.3c-0.4,0-0.7,0-1.2,0.1c-0.4,0-0.9,0.1-1.3,0.2c-0.4,0.1-0.7,0.2-1,0.4
	c-0.3,0.1-0.4,0.3-0.4,0.6l-0.1,0.9c0,0.4-0.1,0.9-0.2,1.7c-0.1,0.8-0.2,1.7-0.3,2.7c-0.1,1-0.2,2.1-0.3,3.2
	c-0.1,1.1-0.2,2.2-0.3,3.2c-0.1,1-0.2,1.9-0.2,2.7C168.3,151.6,168.2,152.1,168.2,152.4z"/>
<path d="M252.1,140.3c0,2.3-0.2,4.4-0.7,6.2c-0.4,1.8-1,3.5-1.8,5c-0.8,1.5-1.7,2.8-2.8,4c-1.1,1.2-2.3,2.3-3.7,3.3
	c-2.7,1.9-5.7,3.4-8.9,4.4c-3.2,1-6.4,1.5-9.7,1.5c-0.5,0-1.1,0-1.6,0c-0.5,0-1.1-0.1-1.6-0.1l-1.3,14.8l-0.7,1.3
	c-0.1,0.1-0.5,0.3-1.4,0.6c-0.9,0.3-1.9,0.7-3.2,1.1l-2.6,0.9c-0.8,0.3-1.5,0.6-2.1,0.8c-0.6,0.2-1.2,0.5-1.7,0.6
	c-0.5,0.2-1.1,0.3-1.6,0.4c-0.5,0.1-1.1,0.1-1.6,0.1c-0.4,0-0.7-0.1-0.9-0.3c-0.2-0.2-0.3-0.6-0.3-1.1l0.4-6.9
	c0.1-1.4,0.2-2.8,0.3-4.2c0.1-1.4,0.2-3,0.3-4.8l0.8-9.7c0.2-2,0.3-3.9,0.4-5.9c0.1-2,0.3-3.8,0.4-5.6c0.1-1.8,0.3-3.4,0.4-5
	c0.1-1.6,0.2-2.9,0.3-4.1c-1.5,0.3-2.6,0.6-3.5,0.7c-0.9,0.1-1.5,0.2-2,0.2c-0.6,0-0.9-0.2-0.9-0.7c0.4-1.3,0.7-2.6,1.1-3.9
	c0.3-1.1,0.6-2.2,0.9-3.3c0.3-1.1,0.6-2.1,0.8-2.9c0.1-0.5,0.3-0.9,0.5-1.1c0.2-0.3,0.4-0.5,0.7-0.6c0.3-0.1,0.6-0.3,1.1-0.4
	c0.4-0.1,1-0.3,1.6-0.5c0.5-0.2,1.2-0.3,2.2-0.5c0.9-0.2,2-0.4,3.2-0.6c1.2-0.2,2.5-0.4,3.9-0.6c1.4-0.2,2.8-0.4,4.3-0.5
	c1.4-0.1,2.9-0.3,4.3-0.4c1.4-0.1,2.7-0.1,4-0.1c3.1,0,6,0.3,8.7,0.9c2.8,0.6,5.2,1.5,7.2,2.9c2.1,1.4,3.7,3.2,5,5.5
	C251.5,133.9,252.1,136.8,252.1,140.3z M222.5,152.4c0,0.3,0.1,0.6,0.2,0.8c0.1,0.2,0.4,0.3,0.9,0.3c0.8,0,1.7-0.2,2.7-0.5
	c1-0.3,2.1-0.8,3.1-1.5c1-0.7,2-1.5,2.9-2.5c0.9-1,1.6-2.2,2-3.5c0.2-0.5,0.3-1.2,0.5-2.1c0.1-0.8,0.2-1.8,0.2-3
	c0-1.9-0.7-3.3-2-4.2c-1.3-0.9-3-1.3-5.1-1.3c-0.4,0-0.7,0-1.2,0.1c-0.4,0-0.9,0.1-1.3,0.2c-0.4,0.1-0.7,0.2-1,0.4
	c-0.3,0.1-0.4,0.3-0.4,0.6l-0.1,0.9c0,0.4-0.1,0.9-0.2,1.7c-0.1,0.8-0.2,1.7-0.3,2.7c-0.1,1-0.2,2.1-0.3,3.2
	c-0.1,1.1-0.2,2.2-0.3,3.2c-0.1,1-0.2,1.9-0.2,2.7C222.6,151.6,222.5,152.1,222.5,152.4z"/>
<path d="M291.1,148.8c-0.1,0.4-0.3,0.9-0.6,1.6c-0.3,0.7-0.6,1.5-1,2.3c-0.4,0.9-0.8,1.8-1.3,2.8c-0.4,1-0.9,2-1.3,3
	c-0.2,0.4-0.3,0.7-0.4,0.8c-0.1,0.2-0.4,0.3-0.6,0.4c-0.3,0.1-0.7,0.1-1.2,0.1c-0.5,0-1.3,0-2.2,0.1l-5.6,0.1l-1.1,12.4h20.8v1.6
	c-0.1,0.1-0.3,0.4-0.7,1.1c-0.4,0.7-0.9,1.5-1.4,2.4c-0.5,0.9-1.1,1.8-1.7,2.8c-0.6,0.9-1.1,1.7-1.5,2.2c-0.3,0.5-0.6,0.9-0.9,1.2
	c-0.4,0.3-0.7,0.5-1.2,0.6c-0.4,0.1-0.9,0.2-1.4,0.2c-0.5,0-1,0-1.6,0c-2.4,0-5-0.1-7.6-0.2c-2.6-0.1-5.3-0.2-7.9-0.4
	c-2.6-0.2-5.2-0.3-7.7-0.5c-2.5-0.2-4.8-0.4-6.9-0.6c-0.2,0-0.4-0.1-0.5-0.3c-0.1-0.2-0.2-0.4-0.2-0.6c-0.1,0,0-0.2,0.2-0.7
	c0.3-0.5,0.6-1.1,1.1-1.8c0.5-0.7,1-1.6,1.5-2.5c0.6-0.9,1.1-1.9,1.6-2.8l0.6-9.1c0.1-1.5,0.2-2.7,0.3-3.4c0.1-0.8,0.1-1.2,0.1-1.2
	c-1.6,0-2.8-0.1-3.6-0.2c-0.8-0.1-1.2-0.4-1.2-0.9c0-0.2,0.2-0.6,0.6-1.2c0.4-0.6,0.9-1.3,1.4-2c0.6-0.8,1.2-1.6,1.8-2.4
	c0.6-0.8,1.2-1.6,1.7-2.3l1-13.8h-0.1c-0.6,0-1.1,0-1.6,0.1c-0.5,0-0.9,0-1.3,0c-1.3,0-2.2-0.1-2.8-0.2c-0.6-0.1-0.8-0.4-0.8-0.8
	c0-0.2,0.2-0.6,0.5-1.2c0.3-0.6,0.7-1.3,1.2-2c0.5-0.8,1-1.6,1.5-2.4c0.5-0.9,1-1.6,1.5-2.4l2.4-4.1h16.9l20-1.5c0,0,0.1,0,0.2,0
	c0.1,0,0.2,0.1,0.4,0.1c0.1,0.1,0.3,0.2,0.4,0.3s0.2,0.4,0.2,0.7l-0.6,2.1c-0.2,0.6-0.4,1.2-0.7,1.9c-0.3,0.7-0.6,1.3-0.9,2
	l-1.8,4.7c-0.2,0.5-0.4,0.8-0.6,1.1c-0.2,0.2-0.8,0.4-1.5,0.4c-2.1,0.1-4.3,0.1-6.9,0.3c-2.5,0.1-5.4,0.2-8.7,0.3
	c-0.1,0.4-0.2,0.7-0.2,0.9c0,0.2,0,0.7-0.1,1.3l-0.2,1.9c-0.1,0.9-0.1,1.8-0.2,2.8c-0.1,1-0.2,2.2-0.4,3.7c1.4-0.1,2.7-0.1,4-0.2
	c1.3-0.1,2.5-0.1,3.6-0.1c1.1,0,2-0.1,2.8-0.1c0.8,0,1.4,0,1.7,0c0.2,0,0.5,0.1,0.7,0.2c0.3,0.2,0.4,0.5,0.4,0.9
	C291.3,148.2,291.2,148.5,291.1,148.8z"/>
<path d="M324.1,179.1c0,0.2-0.1,0.5-0.1,0.7c-0.1,0.2-0.3,0.4-0.5,0.5c-0.1,0.1-0.6,0.2-1.6,0.6c-1,0.3-2.1,0.7-3.3,1.2
	c-1.3,0.4-2.5,0.9-3.7,1.3c-1.2,0.4-2.2,0.8-2.8,1c-0.3,0.1-0.7,0.3-1.2,0.4c-0.5,0.1-0.9,0.2-1.4,0.2c-0.4,0-0.7-0.1-1-0.3
	c-0.3-0.2-0.4-0.5-0.4-1.1c0-1.2,0-2.3,0.1-3.3c0.1-1,0.2-2,0.3-3.1c0.1-1.1,0.2-2.3,0.3-3.6c0.1-1.3,0.2-2.9,0.3-4.7
	c0.1-2.4,0.3-4.7,0.4-6.9c0.2-2.2,0.3-4.5,0.5-6.9l0.6-6.9c0.1-1.1,0.2-2.3,0.2-3.5c0.1-1.2,0.2-2.4,0.2-3.6l0.4-4.9
	c0-0.1-0.1-0.1-0.2-0.1c-0.2,0-0.6,0-1.1,0.1c-0.5,0.1-1.1,0.2-1.8,0.3c-0.7,0.1-1.5,0.3-2.3,0.4c-0.9,0.1-1.7,0.3-2.6,0.4
	c-0.2,0-0.4,0-0.6-0.1s-0.3-0.2-0.3-0.3c0-0.1,0-0.2,0.1-0.2l6.6-11.5c1.5-0.3,3.1-0.7,4.8-1c1.7-0.3,3.6-0.6,5.5-0.9
	c2-0.3,4.1-0.5,6.3-0.7c2.2-0.2,4.6-0.3,7-0.3c2.8,0.1,5.5,0.3,8.2,0.8c2.7,0.5,5,1.3,7.1,2.5c2.1,1.2,3.7,2.8,5,4.8
	c1.3,2,1.9,4.6,1.9,7.6c0,1.7-0.3,3.3-0.9,4.7c-0.6,1.4-1.3,2.7-2.2,3.9c-0.9,1.1-1.9,2.2-3,3c-1.1,0.9-2.1,1.6-3.1,2.2
	c-1,0.6-1.9,1.1-2.6,1.5c-0.8,0.4-1.3,0.6-1.5,0.7c0,0.1,0,0.1,0.1,0.2c0,0.1,0.1,0.2,0.3,0.5c0.1,0.2,0.3,0.6,0.6,1s0.6,1,1,1.7
	c0.4,0.6,0.9,1.5,1.5,2.6c0.6,1.1,1.3,2.4,2.1,3.8c0.8,1.5,1.8,3.1,2.9,4.9c1.1,1.8,2.3,3.8,3.7,5.8c0.5,0.4,1,0.7,1.6,0.7
	c0.6,0.1,1.1,0.1,1.7,0.2c0.5,0,0.9,0,1.3,0.1c0.4,0,0.5,0.2,0.5,0.5c0,0.2-0.2,0.5-0.7,0.7c-0.4,0.3-1,0.6-1.6,0.9
	c-0.6,0.3-1.2,0.6-1.8,0.9c-0.6,0.3-1.1,0.5-1.4,0.6c-0.6,0.3-1.3,0.6-2,0.9c-0.7,0.3-1.5,0.6-2.3,1c-0.8,0.4-1.7,0.8-2.7,1.3
	c-1,0.5-2.1,1.1-3.3,1.7c-0.3,0.2-0.6,0.3-0.9,0.4c-0.3,0.1-0.5,0.1-0.8,0.1c-0.5,0-0.9-0.1-1.3-0.3c-0.4-0.2-0.6-0.5-0.9-0.8
	c-0.2-0.3-0.4-0.7-0.6-1c-0.1-0.3-0.3-0.6-0.4-0.8L326,156.7L324.1,179.1z M326.5,151.7c1.4,0,2.8-0.4,4.3-1.1
	c1.5-0.7,2.8-1.6,4-2.7c1.2-1.1,2.2-2.4,3-3.8c0.8-1.4,1.2-2.8,1.2-4.3c0-3.9-2.3-5.9-7-5.9c-0.9,0-1.6,0.1-2.2,0.2
	c-0.6,0.1-1.1,0.2-1.6,0.3L326.5,151.7z"/>
<path class="st0" d="M118.1,153.4c-0.3-1.5-0.6-3.1-1-4.8c-0.3-1.7-0.6-3.6-0.9-5.6c-0.6,2.4-1.3,4.6-1.9,6.5
	c-0.6,2-1.2,3.7-1.7,5.2c-0.5,1.5-1,2.8-1.4,3.8c-0.4,1-0.6,1.8-0.8,2.4v0.4c0,0.2,0,0.3,0,0.3h9.7c-0.3-1.3-0.6-2.7-1-4
	C118.7,156.3,118.4,154.9,118.1,153.4z"/>
<path class="st0" d="M178.6,136.3c-1.3-0.9-3-1.3-5.1-1.3c-0.4,0-0.7,0-1.2,0.1c-0.4,0-0.9,0.1-1.3,0.2c-0.4,0.1-0.7,0.2-1,0.4
	c-0.3,0.1-0.4,0.3-0.4,0.6l-0.1,0.9c0,0.4-0.1,0.9-0.2,1.7c-0.1,0.8-0.2,1.7-0.3,2.7c-0.1,1-0.2,2.1-0.3,3.2
	c-0.1,1.1-0.2,2.2-0.3,3.2c-0.1,1-0.2,1.9-0.2,2.7c-0.1,0.8-0.1,1.3-0.1,1.7c0,0.3,0.1,0.6,0.2,0.8c0.1,0.2,0.4,0.3,0.9,0.3
	c0.8,0,1.7-0.2,2.7-0.5c1-0.3,2.1-0.8,3.1-1.5c1-0.7,2-1.5,2.9-2.5c0.9-1,1.6-2.2,2-3.5c0.2-0.5,0.3-1.2,0.5-2.1
	c0.1-0.8,0.2-1.8,0.2-3C180.6,138.6,180,137.2,178.6,136.3z M175.5,142.7c-0.1,0.7-0.2,1.1-0.2,1.1c-0.3,0.8-0.6,1.3-1,1.8
	c-0.1,0.2-0.3,0.3-0.5,0.5c0-0.3,0.1-0.6,0.1-0.9c0.1-1.1,0.2-2.2,0.3-3.2c0.1-0.7,0.1-1.4,0.2-2c0.5,0.1,1,0.2,1.3,0.3
	c0,0,0,0.1,0,0.2C175.6,141.4,175.6,142.1,175.5,142.7z"/>
<path class="st0" d="M233,136.3c-1.3-0.9-3-1.3-5.1-1.3c-0.4,0-0.7,0-1.2,0.1c-0.4,0-0.9,0.1-1.3,0.2c-0.4,0.1-0.7,0.2-1,0.4
	c-0.3,0.1-0.4,0.3-0.4,0.6l-0.1,0.9c0,0.4-0.1,0.9-0.2,1.7c-0.1,0.8-0.2,1.7-0.3,2.7c-0.1,1-0.2,2.1-0.3,3.2
	c-0.1,1.1-0.2,2.2-0.3,3.2c-0.1,1-0.2,1.9-0.2,2.7c-0.1,0.8-0.1,1.3-0.1,1.7c0,0.3,0.1,0.6,0.2,0.8c0.1,0.2,0.4,0.3,0.9,0.3
	c0.8,0,1.7-0.2,2.7-0.5c1-0.3,2.1-0.8,3.1-1.5c1-0.7,2-1.5,2.9-2.5c0.9-1,1.6-2.2,2-3.5c0.2-0.5,0.3-1.2,0.5-2.1
	c0.1-0.8,0.2-1.8,0.2-3C234.9,138.6,234.3,137.2,233,136.3z M229.8,142.7c-0.1,0.7-0.2,1.1-0.2,1.1c-0.3,0.8-0.6,1.3-1,1.8
	c-0.1,0.2-0.3,0.3-0.5,0.5c0-0.3,0.1-0.6,0.1-0.9c0.1-1.1,0.2-2.2,0.3-3.2c0.1-0.7,0.1-1.4,0.2-2c0.5,0.1,1,0.2,1.3,0.3
	c0,0,0,0.1,0,0.2C229.9,141.4,229.9,142.1,229.8,142.7z"/>
<path class="st0" d="M332,134.1c-0.9,0-1.6,0.1-2.2,0.2c-0.6,0.1-1.1,0.2-1.6,0.3l-1.6,17.2c1.4,0,2.8-0.4,4.3-1.1
	c1.5-0.7,2.8-1.6,4-2.7c1.2-1.1,2.2-2.4,3-3.8c0.8-1.4,1.2-2.8,1.2-4.3C339,136,336.7,134.1,332,134.1z M333.5,141.7
	c-0.3,0.6-0.7,1.1-1.2,1.7l0.4-4.3c0.7,0.1,1.1,0.2,1.2,0.2c0,0.1,0.1,0.3,0.1,0.6C334,140.5,333.9,141.1,333.5,141.7z"/>
<path class="st0" d="M256.3,147.6c0.1-0.6,0.3-1.3,0.4-2l-0.3,3.7c-0.2,0.3-0.5,0.7-0.8,1c-0.1,0.1-0.1,0.2-0.2,0.2
	C255.8,149.7,256.1,148.7,256.3,147.6z"/>
</svg>
