<?xml version="1.0" encoding="utf-8"?>
<!-- Generator: Adobe Illustrator 25.3.1, SVG Export Plug-In . SVG Version: 6.00 Build 0)  -->
<svg version="1.1" id="Ebene_1" xmlns="http://www.w3.org/2000/svg" xmlns:xlink="http://www.w3.org/1999/xlink" x="0px" y="0px"
	 viewBox="0 0 384.3 375.1" style="enable-background:new 0 0 384.3 375.1;" xml:space="preserve">
<style type="text/css">
	.st0{fill:#FFFFFF;}
	.st1{fill:url(#SVGID_1_);}
	.st2{fill:url(#SVGID_2_);}
	.st3{fill:url(#SVGID_3_);}
	.st4{fill:url(#SVGID_4_);}
	.st5{fill:url(#SVGID_5_);}
</style>
<path class="st0" d="M337.3,159.1L337.3,159.1c-2.3-13.1-6.4-25.8-12.2-37.8c1.6-2,3.1-4.1,4.5-6.1c16.6-24.8,18.2-53.9,4.2-79.7
	l-5.5-10.1c-1-1.9-3.1-2.9-5.2-2.5c-2.1,0.4-3.8,2-4.1,4.2l-1.8,11.4c-1.3,8.6-4.7,17-10,24.9c-4,6-9.1,11.6-15.1,16.6
	c-2.9-3.1-6-6-9.1-8.8c-22.8-20.1-51.7-32.4-81.6-34.7c-1.9-3.6-5.7-6-10-6c-4.3,0-8.1,2.4-10,5.9c-30.3,2.1-59.5,14.4-82.6,34.7
	c-3.1,2.8-6.2,5.7-9.1,8.8c-6-5-11-10.6-15.1-16.6c-5.3-7.9-8.7-16.3-10-24.8L62.8,27c-0.3-2.1-2-3.8-4.1-4.2
	c-2.1-0.4-4.2,0.7-5.2,2.5L48,35.5c-14,25.8-12.5,54.8,4.2,79.7c1.4,2.1,2.9,4.1,4.5,6.1c-5.8,12-9.9,24.7-12.2,37.8l-1,5.4
	c-0.3,1.5,0.1,3,1.1,4.1c1,1.1,2.4,1.8,3.8,1.8h3.8c-1,6.6-1.4,13.3-1.4,20c0,77.2,62.8,140.1,140.1,140.1
	c77.2,0,140.1-62.8,140.1-140.1c0-6.7-0.5-13.4-1.4-20h3.8c1.5,0,2.9-0.7,3.8-1.8c0.9-1.1,1.3-2.6,1.1-4.1L337.3,159.1z"/>
<linearGradient id="SVGID_1_" gradientUnits="userSpaceOnUse" x1="115.0889" y1="98.6729" x2="334.3918" y2="98.6729">
	<stop  offset="5.618000e-03" style="stop-color:#5A1C1A"/>
	<stop  offset="8.427000e-02" style="stop-color:#924E20"/>
	<stop  offset="0.382" style="stop-color:#CF9D51"/>
	<stop  offset="0.5618" style="stop-color:#FFF6E3"/>
	<stop  offset="0.8034" style="stop-color:#DCBA92"/>
	<stop  offset="0.8984" style="stop-color:#B67A3B"/>
	<stop  offset="0.9551" style="stop-color:#A05811"/>
</linearGradient>
<path class="st1" d="M326,39.7c-1.5,9.6-5.2,19.2-11.4,28.4c-28.4,42.4-97.5,59.5-154.3,38.4c-7.2-2.7-13.9-5.9-19.9-9.4
	c-5.4,6.8-13.6,11.1-22.7,11.1c-0.9,0-1.7,0-2.5-0.1c10.6,17,28.6,31.5,52.8,40.5c56.8,21.2,125.9,4,154.3-38.4
	C337.6,87.3,337.9,61.7,326,39.7z"/>
<linearGradient id="SVGID_2_" gradientUnits="userSpaceOnUse" x1="47.4006" y1="98.6729" x2="266.7486" y2="98.6729">
	<stop  offset="5.618000e-03" style="stop-color:#5A1C1A"/>
	<stop  offset="8.427000e-02" style="stop-color:#924E20"/>
	<stop  offset="0.382" style="stop-color:#CF9D51"/>
	<stop  offset="0.5618" style="stop-color:#FFF6E3"/>
	<stop  offset="0.8034" style="stop-color:#DCBA92"/>
	<stop  offset="0.8984" style="stop-color:#B67A3B"/>
	<stop  offset="0.9551" style="stop-color:#A05811"/>
</linearGradient>
<path class="st2" d="M263.5,108.2c-9,0-17-4.2-22.4-10.9c-6,3.5-12.5,6.5-19.5,9.2c-56.8,21.2-125.9,4-154.3-38.4
	c-6.2-9.2-9.9-18.8-11.4-28.4c-11.9,22-11.6,47.6,3.7,70.5c28.4,42.4,97.5,59.5,154.3,38.4c24.2-9,42.3-23.6,52.9-40.5
	C265.7,108.1,264.6,108.2,263.5,108.2z"/>
<radialGradient id="SVGID_3_" cx="190.8962" cy="190.3449" r="130.5825" gradientUnits="userSpaceOnUse">
	<stop  offset="0" style="stop-color:#FFFAD1"/>
	<stop  offset="0.1171" style="stop-color:#FDF2C0"/>
	<stop  offset="0.3487" style="stop-color:#F3DE92"/>
	<stop  offset="0.3708" style="stop-color:#F2DC8D"/>
	<stop  offset="0.3767" style="stop-color:#EEDB87"/>
	<stop  offset="0.4068" style="stop-color:#DBD46C"/>
	<stop  offset="0.4407" style="stop-color:#C9CE54"/>
	<stop  offset="0.4787" style="stop-color:#B9C940"/>
	<stop  offset="0.5229" style="stop-color:#AAC42E"/>
	<stop  offset="0.5769" style="stop-color:#A0C11E"/>
	<stop  offset="0.6515" style="stop-color:#99BF12"/>
	<stop  offset="0.8452" style="stop-color:#97BF0D"/>
	<stop  offset="0.8707" style="stop-color:#85B819"/>
	<stop  offset="0.9204" style="stop-color:#64AE24"/>
	<stop  offset="0.965" style="stop-color:#4BA829"/>
	<stop  offset="1" style="stop-color:#41A62A"/>
</radialGradient>
<circle class="st3" cx="190.9" cy="190.3" r="130.6"/>
<radialGradient id="SVGID_4_" cx="190.8962" cy="102.4613" r="100.8828" gradientUnits="userSpaceOnUse">
	<stop  offset="0" style="stop-color:#EDEBE8"/>
	<stop  offset="0" style="stop-color:#FBFBFA"/>
	<stop  offset="0" style="stop-color:#FFFFFF"/>
	<stop  offset="0.1232" style="stop-color:#F3F3F3"/>
	<stop  offset="0.3585" style="stop-color:#D3D3D4"/>
	<stop  offset="0.5225" style="stop-color:#B9BABB"/>
	<stop  offset="0.6004" style="stop-color:#AEB0B2"/>
	<stop  offset="0.7316" style="stop-color:#939799"/>
	<stop  offset="0.8989" style="stop-color:#686F71"/>
	<stop  offset="1" style="stop-color:#4C5456"/>
</radialGradient>
<path class="st4" d="M321.7,159.4c-11-64.8-65.4-114-130.8-114c-65.4,0-119.8,49.2-130.8,114H321.7z"/>
<linearGradient id="SVGID_5_" gradientUnits="userSpaceOnUse" x1="53.9438" y1="140.4842" x2="327.8486" y2="140.4842">
	<stop  offset="0" style="stop-color:#EDEBE8"/>
	<stop  offset="0" style="stop-color:#E7E3E0"/>
	<stop  offset="6.164776e-02" style="stop-color:#D8D5D3"/>
	<stop  offset="0.1794" style="stop-color:#B4B0B2"/>
	<stop  offset="0.264" style="stop-color:#979297"/>
	<stop  offset="0.5225" style="stop-color:#F8F8F8"/>
	<stop  offset="0.5875" style="stop-color:#E9E8E9"/>
	<stop  offset="0.7124" style="stop-color:#C3C0C2"/>
	<stop  offset="0.8764" style="stop-color:#8B868A"/>
	<stop  offset="1" style="stop-color:#D9DADB"/>
	<stop  offset="1" style="stop-color:#B1B3B4"/>
</linearGradient>
<path class="st5" d="M67,121.2c-6.1,12-10.6,24.9-13,38.6h273.9c-2.4-13.7-6.9-26.6-13-38.6H67z"/>
<circle class="st0" cx="191.3" cy="61" r="2.8"/>
<path d="M191.3,67.3c-3.5,0-6.3-2.8-6.3-6.3c0-3.5,2.8-6.3,6.3-6.3s6.3,2.8,6.3,6.3C197.7,64.5,194.8,67.3,191.3,67.3z M191.3,60.3
	c-0.4,0-0.7,0.3-0.7,0.7c0,0.4,0.3,0.7,0.7,0.7s0.7-0.3,0.7-0.7C192,60.6,191.7,60.3,191.3,60.3z"/>
<circle class="st0" cx="191.3" cy="41.7" r="2.8"/>
<circle class="st0" cx="191.3" cy="82.8" r="2.8"/>
<path d="M191.3,89.1c-3.5,0-6.3-2.8-6.3-6.3c0-3.5,2.8-6.3,6.3-6.3s6.3,2.8,6.3,6.3C197.7,86.3,194.8,89.1,191.3,89.1z M191.3,82.1
	c-0.4,0-0.7,0.3-0.7,0.7c0,0.4,0.3,0.7,0.7,0.7s0.7-0.3,0.7-0.7C192,82.4,191.7,82.1,191.3,82.1z"/>
<circle class="st0" cx="191.3" cy="106.6" r="2.8"/>
<path d="M191.3,112.9c-3.5,0-6.3-2.8-6.3-6.3c0-3.5,2.8-6.3,6.3-6.3s6.3,2.8,6.3,6.3C197.7,110.1,194.8,112.9,191.3,112.9z
	 M191.3,105.9c-0.4,0-0.7,0.3-0.7,0.7c0,0.4,0.3,0.7,0.7,0.7s0.7-0.3,0.7-0.7C192,106.2,191.7,105.9,191.3,105.9z"/>
<path class="st0" d="M147.2,181.1c-14.9,0-26.9-11.6-26.9-25.9c0-1.2,0.1-2.4,0.3-3.6c-12.6,2.2-22.2,12.8-22.2,25.5
	c0,14.3,12.1,25.9,26.9,25.9c13.6,0,24.9-9.7,26.7-22.4C150.4,180.9,148.8,181.1,147.2,181.1z"/>
<path class="st0" d="M233.7,181.1c14.9,0,26.9-11.6,26.9-25.9c0-1.2-0.1-2.4-0.3-3.6c12.6,2.2,22.2,12.8,22.2,25.5
	c0,14.3-12.1,25.9-26.9,25.9c-13.6,0-24.9-9.7-26.7-22.4C230.5,180.9,232.1,181.1,233.7,181.1z"/>
<path d="M332.4,160c-2.4-13.7-6.9-26.9-13.2-39.4c2.3-2.6,4.4-5.4,6.3-8.2c15.6-23.2,17-50.4,3.9-74.5l-5.5-10.1l-1.8,11.4
	c-1.5,9.3-5.1,18.4-10.8,26.9c-5.2,7.8-12,14.7-19.7,20.7c-3.7-4.2-7.7-8.1-11.9-11.9c-22.9-20.2-51.6-32-81.5-33.6l-0.5-0.1
	c-0.3-3.2-3-5.7-6.3-5.7c-3.3,0-6,2.5-6.3,5.7c-30.4,1.4-59.7,13.2-82.9,33.7c-4.2,3.7-8.2,7.7-11.9,11.9
	C82.4,80.7,75.7,73.8,70.4,66c-5.7-8.5-9.3-17.5-10.8-26.9l-1.8-11.4l-5.5,10.1C39.3,62,40.8,89.1,56.3,112.4c1.9,2.9,4,5.6,6.3,8.2
	C56.3,133,51.8,146.3,49.4,160l-1,5.4h9.7c-1.5,8.1-2.3,16.4-2.3,25c0,74.5,60.6,135.1,135.1,135.1c74.5,0,135.1-60.6,135.1-135.1
	c0-8.5-0.8-16.9-2.3-25h9.7L332.4,160z M317.8,70.3c4-6,7.1-12.2,9.2-18.6c6.5,18.8,3.7,38.8-8,56.3c-2,3.1-4.3,6-6.8,8.7
	c-4.4-8.6-9.6-16.7-15.6-24.2C305,86.2,312.2,78.7,317.8,70.3z M212.3,51.8c38.4,6.7,71.5,31.2,90.3,65.7h-90.3V51.8z M177,50.8
	c4.6-0.5,9.2-0.8,13.8-0.8c4.9,0,9.7,0.3,14.4,0.8v66.8H177V50.8z M170,51.8v65.8H79.2C98.1,82.8,131.4,58.3,170,51.8z M54.8,51.7
	c2.1,6.4,5.2,12.6,9.2,18.6c5.6,8.4,12.9,15.9,21.2,22.3c-6,7.5-11.2,15.6-15.6,24.2c-2.5-2.8-4.8-5.7-6.8-8.7
	C51,90.5,48.3,70.5,54.8,51.7z M190.9,316.4c-69.5,0-126.1-56.6-126.1-126.1c0-8.5,0.9-16.9,2.5-25h30.7c-0.5,1-1,2.1-1.3,3.2
	c-1.7,5.1-1.8,10.8-0.3,16c0.2,0.7,0.4,1.3,0.6,1.9l0.8,1.9c0.6,1.2,1.2,2.4,2,3.5c0.7,1.1,1.6,2.2,2.4,3.2c0.4,0.5,0.9,1,1.4,1.4
	l0.7,0.7c0.2,0.2,0.5,0.4,0.8,0.6c4.1,3.5,9.1,5.6,14.2,6.4c5.1,0.7,10.4,0.2,15-1.7c6-2.3,10.9-6.6,14.1-11.9c0,0,0.1,0,0.1,0
	c3,1.1,6.3,2,10,1.8c0.9-0.1,1.8-0.1,2.8-0.3c0.9-0.2,1.9-0.4,2.7-0.8l1.3-0.6c0.4-0.2,0.8-0.5,1.2-0.7l1.2-0.8
	c0.4-0.3,0.7-0.6,1-0.9c2.6-2.5,4.1-5.4,4.8-8.3c0.8-2.9,1-5.7,0.8-8.6c-1.5,2.4-3.1,4.6-4.8,6.5c-1.7,1.9-3.6,3.3-5.4,3.9
	c-1.8,0.6-3.3,0.5-5,0c-1.7-0.5-3.5-1.5-5.3-2.7c-3.7-2.5-7.5-5.8-11.4-9.2l-2.9-2.5c-0.8-0.7-1.7-1.5-2.5-2.3h105.9
	c-0.8,0.8-1.7,1.5-2.5,2.3l-2.9,2.5c-4,3.4-7.7,6.7-11.4,9.2c-1.8,1.2-3.7,2.2-5.3,2.7c-1.7,0.5-3.2,0.6-5,0c-1.8-0.6-3.7-2-5.4-3.9
	c-1.7-1.9-3.2-4.1-4.8-6.5c-0.2,2.8,0,5.7,0.8,8.6c0.8,2.9,2.2,5.8,4.8,8.3c0.3,0.3,0.7,0.6,1,0.9l1.2,0.8c0.4,0.2,0.8,0.5,1.2,0.7
	l1.3,0.6c0.9,0.4,1.8,0.5,2.7,0.8c0.9,0.2,1.8,0.2,2.8,0.3c3.7,0.1,7-0.8,10-1.8c0.2-0.1,0.4-0.2,0.7-0.3c3.2,5.4,8.2,9.8,14.2,12.1
	c4.7,1.9,9.9,2.4,15,1.7c5.1-0.8,10.1-3,14.2-6.4c0.3-0.2,0.5-0.4,0.8-0.6l0.7-0.7c0.5-0.5,1-0.9,1.4-1.4c0.9-1,1.7-2.1,2.4-3.2
	c0.8-1.1,1.3-2.3,2-3.5l0.8-1.9c0.3-0.6,0.5-1.3,0.6-1.9c1.5-5.2,1.4-10.9-0.3-16c-0.3-1.1-0.8-2.2-1.3-3.2h31.6
	c1.6,8.1,2.5,16.4,2.5,25C317,259.9,260.4,316.4,190.9,316.4z M102.3,170.4c0.6-2.1,1.5-4,2.7-5.9c1.1-1.8,2.5-3.6,4.2-5
	c0.2-0.2,0.3-0.3,0.5-0.4c3.2,4.2,6.6,8.4,10.5,12.3c2,2,4.1,3.9,6.3,5.8c1.1,0.9,2.2,1.8,3.4,2.7c1.2,0.9,2.3,1.7,3.4,2.5
	c4.4,3,9.1,6.1,14.8,8.3c-0.7,1-1.5,2-2.3,2.9c-1.6,1.8-3.5,3.2-5.5,4.4c-2,1.2-4.2,2.1-6.5,2.7c-4.5,1.2-9.3,1.1-13.6,0
	c-2.2-0.6-4.3-1.4-6.2-2.6c-1.9-1.1-3.7-2.4-5.2-4c-1.5-1.5-2.9-3.2-4-5.1c-0.6-0.9-1-1.9-1.5-2.9c-0.3-1-0.8-2-1-3
	C101,178.9,101.1,174.4,102.3,170.4z M270.9,158.7c0.3,0.3,0.6,0.5,0.9,0.8c1.6,1.5,3,3.2,4.2,5c1.2,1.8,2.1,3.8,2.7,5.9
	c1.2,4.1,1.3,8.5,0.2,12.6c-0.2,1-0.7,2-1,3c-0.5,1-0.9,2-1.5,2.9c-1.1,1.9-2.4,3.6-4,5.1c-1.5,1.6-3.3,2.9-5.2,4
	c-1.9,1.1-4,1.9-6.2,2.6c-4.4,1.1-9.1,1.3-13.6,0c-2.3-0.6-4.5-1.5-6.5-2.7c-2-1.2-4-2.7-5.5-4.4c-0.9-1-1.7-2-2.5-3.1
	c5.4-2.2,10-5.2,14.2-8.1c1.1-0.8,2.3-1.6,3.4-2.5c1.1-0.9,2.3-1.8,3.4-2.7c2.2-1.8,4.3-3.8,6.3-5.8
	C264.1,167.3,267.7,163,270.9,158.7z M275.6,156.2c-0.2-0.2-0.4-0.3-0.6-0.5c-0.4-0.3-0.9-0.6-1.3-0.9c2.2-3.2,4.3-6.2,6.2-8.7
	c1.4-1.7,2.6-2.9,3.8-3.7c1.2-0.7,3-1.1,5-0.7c2,0.3,4.3,1.3,6.5,2.6c2.2,1.3,4.4,3,6.6,4.7c-0.8-2.7-1.9-5.3-3.5-7.8
	c-1.6-2.5-3.6-4.9-6.5-6.7c-1.4-0.9-3.1-1.6-4.9-2.1c-1.8-0.4-3.8-0.5-5.8-0.2c-2,0.3-3.8,1-5.5,1.8c-1.6,0.8-3.1,1.8-4.3,2.8
	c-2.5,2-4.6,4-6.5,6c-1.9,2-3.7,4-5.5,5.9c-2.3,2.5-4.6,5-6.8,7.3H127.8c-2.3-2.4-4.5-4.8-6.8-7.3c-1.8-1.9-3.6-3.9-5.5-5.9
	c-1.9-2-4-4.1-6.5-6c-1.3-1-2.7-2-4.3-2.8c-1.6-0.8-3.5-1.5-5.5-1.8c-2-0.3-4-0.2-5.8,0.2c-1.8,0.4-3.5,1.1-4.9,2.1
	c-2.9,1.8-4.9,4.2-6.5,6.7c-1.6,2.5-2.7,5.1-3.5,7.8c2.2-1.7,4.4-3.4,6.6-4.7c2.2-1.3,4.4-2.3,6.5-2.6c2-0.4,3.8,0,5,0.7
	c1.2,0.7,2.4,1.9,3.8,3.7c2,2.6,4.2,5.8,6.5,9c-0.3,0.2-0.6,0.4-0.8,0.6c-0.2,0.1-0.4,0.3-0.6,0.5H59.6c2.2-10.1,5.7-20,10.3-29.4
	H312c4.6,9.4,8,19.2,10.3,29.4H275.6z"/>
<path class="st0" d="M353.2,209.5c-0.9-0.5-1.8-0.7-2.8-0.7c-0.9,0-1.8,0.2-2.8,0.5c-0.2,0.1-0.4,0.1-0.4,0.1c-0.1,0-0.1,0-0.2,0
	l-10.5,2.5c0,0,0,0-0.1,0c-1,0.3-2,0.6-2.8,1.3c-1,0.8-1.6,2.1-1.7,3.4c-0.1,1.2-0.2,2.5-0.3,3.9c-0.1,1.4-0.2,2.9-0.3,4.4
	c0,0.4-0.1,0.8-0.1,1.2c-1.6-0.7-3.3-1-5-1c-3.4,0-6.7,0.7-9.8,2c-3.1,1.3-5.8,3.2-8.1,5.6c-1.7,1.8-3.1,3.8-4.3,6.1
	c-0.2-0.6-0.4-1.2-0.6-1.7c-0.9-2.2-2.3-4.2-4-5.9c-1.7-1.7-3.8-3.2-6.1-4.3c-2.4-1.1-5.2-1.7-8.1-1.7c-3.9,0-7.6,0.7-10.9,2.2
	c-3.3,1.4-6.2,3.4-8.5,5.9c-1.8,1.9-3.4,4.1-4.6,6.6l0.9-10c0-0.1,0-0.2,0-0.4c0-1.4-0.6-2.6-1.7-3.4c0.9-0.6,1.7-1.5,2.1-2.5
	c0.2-0.7,0.4-1.5,0.5-2.7l0.8-10.3c0.1-1.3-0.5-2.6-1.5-3.5c-0.7-0.8-1.8-1.2-2.9-1.2c-0.6,0-1.1,0.1-1.6,0.2
	c-2,0.7-4.1,1.2-6.2,1.7c-2.2,0.4-4.3,0.9-6.3,1.3c-0.1,0-0.2-0.1-0.3-0.2c0,0-0.1,0-0.1,0c-2.4-0.9-4.7-1.6-7.1-2.2
	c-2.4-0.5-4.8-0.8-7.1-0.8c-2.4,0-4.7,0.4-6.8,1.1c-2.3,0.8-4.4,2-6.2,3.8c-1.7,1.7-3.2,3.9-4.3,6.5c-1.1,2.5-1.8,5.5-2.2,9
	l-0.3,2.4h-1c-1.3,0-2.5,0.6-3.2,1.6c-0.1,0.1-0.3,0.4-0.7,1c-0.2,0.4-0.5,0.8-0.8,1.2l0.2-2.6c0-0.1,0-0.2,0-0.4
	c0-1.4-0.6-2.6-1.7-3.4c0.9-0.6,1.7-1.5,2.1-2.5c0.2-0.7,0.4-1.5,0.5-2.7l0.8-10.3c0.1-1.3-0.5-2.6-1.5-3.5
	c-0.7-0.8-1.8-1.2-2.9-1.2c-0.6,0-1.1,0.1-1.6,0.2c-2,0.7-4.1,1.2-6.2,1.7c-2.3,0.5-4.5,0.9-6.6,1.3c0,0-0.1,0-0.1,0
	c-1.8,0.4-3.2,1.6-3.7,3.2c-0.3,0.7-0.4,1.5-0.5,2.8c-0.1,1.2-0.2,2.2-0.2,2.9c-0.1,0.7-0.1,1.2-0.1,1.6c0,0.2,0,0.3,0,0.4
	c-0.1,0.3-0.1,0.5-0.1,0.8c0,0.1,0,0.2,0,0.3c0,0.3-0.1,0.8-0.1,1.4c0,0.6-0.1,1.4-0.2,2.4c0,0.1,0,0.2,0,0.3c0,1.5,0.8,2.9,1.9,3.6
	c-0.7,0.4-1.3,0.9-1.8,1.6c-0.2-0.3-0.5-0.6-0.9-0.8c-0.9-0.6-1.9-1-3-1h-5.5c0.1-1.4,0.3-2.6,0.4-3.9c0.3-2.4,0.5-4.4,0.6-5.8
	c0-0.1,0-0.2,0-0.4v-0.1c0-2.4-2-4.3-4.4-4.3c-0.3,0-0.6,0-0.8,0.1c-0.2,0-0.4,0.1-0.6,0.1c-1.1,0.3-2.2,0.6-3.2,0.9
	c-1,0.2-2,0.5-3,0.6c-1,0.2-2.1,0.4-3.1,0.6c-1.1,0.2-2.2,0.4-3.3,0.6c0,0-0.1,0-0.1,0c-0.5,0.1-0.9,0.3-1.3,0.4
	c-0.8,0.4-1.8,1.1-2.4,2.6c-0.2,0.5-0.3,1.1-0.5,1.8c-0.1,0.5-0.2,1.3-0.3,2.2c-0.1,0.8-0.2,1.9-0.3,3.2c0,0.1,0,0.3,0,0.4
	c-0.1-0.5-0.4-1.1-0.8-1.5c-0.8-0.9-1.9-1.5-3.1-1.5c-1.3,0-2.7,0.2-4.3,0.6c-1.5,0.4-3,0.8-4.5,1.4c-0.7,0.3-1.3,0.5-2,0.8
	c-0.1-0.2-0.2-0.3-0.3-0.5c-0.4-0.6-1.5-2-3.8-2c-0.4,0-0.8,0.1-1.2,0.2c-2.1,0.7-4.3,1.2-6.5,1.7c-2.4,0.5-4.8,0.9-7,1.4
	c0,0-0.1,0-0.1,0c-1.8,0.4-3.2,1.6-3.7,3.2c-0.2,0.7-0.4,1.5-0.5,2.7l-0.4,4.2c-0.2-0.5-0.3-0.9-0.5-1.4c-0.9-2.2-2.3-4.2-4-5.9
	c-1.7-1.7-3.8-3.2-6.1-4.3c-2.4-1.1-5.2-1.7-8.1-1.7c-3.9,0-7.6,0.7-10.9,2.2c-3.3,1.4-6.2,3.4-8.5,5.9c-0.3,0.3-0.5,0.6-0.8,0.9
	c0.1-0.3,0.1-0.7,0.1-1c0-1,0-2.1-0.1-3.5c-0.1-1.3-0.1-2.6-0.2-3.8c-0.1-1.2-0.2-2.3-0.2-3.3c-0.1-0.8-0.1-1.3-0.1-1.6
	c0.2-1.3-0.3-2.6-1.4-3.5c-0.7-0.6-1.5-1.2-2.6-1.9c-1.1-0.7-2.4-1.3-3.9-1.8c-1.4-0.5-3.1-0.9-5-1.3c-1.9-0.3-4-0.5-6.4-0.5
	c-3.1,0-6.1,0.4-9,1.2c-2.8,0.8-5.5,1.9-7.9,3.4c-2.4,1.5-4.7,3.2-6.6,5.3c-2,2-3.7,4.3-5,6.8c-1.4,2.5-2.5,5.2-3.2,8
	c-0.7,2.8-1.1,5.8-1.1,8.9c0,4.5,0.7,8.7,2.2,12.4c1.5,3.8,3.5,7.1,6.1,9.9c2.6,2.8,5.7,5,9.3,6.5c3.5,1.5,7.4,2.3,11.4,2.3
	c1.4,0,2.8,0,4.3-0.1c1.6-0.1,3.1-0.3,4.7-0.6c1.6-0.3,3.1-0.7,4.6-1.2c1.5-0.5,3-1.2,4.3-2.1c1-0.5,2-1.7,2.1-3.9
	c0-0.4,0-0.9,0-1.6c0-0.6,0-1.3,0-2.1c0-0.1,0-0.3,0-0.4c1.2,2.1,2.8,4,4.6,5.6c2.3,2.1,5,3.7,8,4.8c3,1.1,6.1,1.6,9.2,1.6
	c1,0,2.2-0.1,3.5-0.3c1.2-0.2,2.5-0.4,3.8-0.7c1.2-0.3,2.5-0.6,3.7-1c1.2-0.4,2.4-0.8,3.4-1.2c1.1-0.5,2-0.9,2.7-1.4
	c0.3-0.2,0.6-0.4,0.9-0.7c0,0,0,0.1,0,0.1c0,1.8,0.8,3.3,2.2,4.2c0.9,0.6,2,0.9,3.1,0.9c0.9,0,1.7-0.1,2.6-0.4
	c0.5-0.2,0.9-0.3,1.2-0.4l9.7-3.5c1.1-0.3,1.8-0.6,2.4-1.1c1.2-0.9,1.9-2.2,1.9-3.7c0-0.2,0-0.5,0-0.8c0,0,0,0,0-0.1
	c0-0.1,0-0.3,0-0.5c0-0.4,0.1-0.9,0.2-1.4c0.1-0.6,0.2-1.3,0.2-2.1c0.1-0.6,0.1-1.2,0.2-1.8c0.1-0.6,0.1-1.2,0.2-1.7
	c0-0.5,0.1-0.8,0.1-1c0-0.4,0.1-0.7,0.1-1.1c0-0.5,0.1-1.1,0.1-1.9c0-0.7,0.1-1.7,0.2-2.8l0.2-1.9l0.2-2.5c0.1-0.8,0.3-1.4,0.6-1.8
	c0.4-0.5,0.8-0.9,1.2-1.1c0.6-0.3,1.2-0.5,1.8-0.6c0.9-0.1,1.8-0.2,2.7-0.2c0.6,0,1.1,0,1.7,0.1l0.9,0.1c0.7,0.7,1.6,1.3,3,1.6
	c0.8,0.1,1.8,0.2,3.2,0.2c-0.1,0.7-0.1,1.4-0.2,2.1c-0.2,2.2-0.4,4.5-0.6,7c-0.1,0.9-0.1,1.7-0.2,2.5c-0.1,0.8-0.1,1.7-0.1,2.5
	c0,5.2,1.3,9.3,3.9,12.1c2.7,2.9,6.7,4.4,12,4.4c1,0,2.1-0.1,3.4-0.3c1.1-0.2,2.3-0.5,3.5-0.8c1.1-0.3,2.3-0.7,3.5-1
	c1.2-0.4,2.3-0.7,3.3-1.1c0.1,0,0.2-0.1,0.2-0.1c0.5,1.9,2.2,3.4,4.3,3.4c0.6,0,1.1-0.1,1.6-0.2c2.5-0.8,4.8-1.7,7-2.5
	c2-0.7,4.1-1.4,6.1-2.1c1.8-0.5,3-1.6,3.6-3.3c0.2-0.6,0.3-1.4,0.4-2.6l1.9-20.4c0.2,0.1,0.4,0.1,0.6,0.2c0.9,0.2,2,0.2,3.6,0.2h0.6
	c-0.1,0.8-0.2,1.7-0.2,2.5c-0.2,2.3-0.4,4.4-0.6,6.5c-0.2,2.1-0.4,4-0.5,5.8l-0.3,3l-0.2,1.8c-0.1,1.4-0.2,2.5-0.3,3.4
	c-0.1,0.9-0.1,1.5-0.2,1.8c0,0.1,0,0.2,0,0.4c0,2.1,0.9,3.4,1.7,4.1c0.7,0.6,1.8,1.3,3.6,1.3c0.9,0,1.7-0.1,2.6-0.4
	c0.5-0.2,0.9-0.3,1.2-0.4l9.6-3.4c0.9-0.2,1.9-0.6,2.7-1.2c1.1-0.9,1.7-2.2,1.7-3.6c0-0.1,0-0.3,0-0.4c0.1-0.9,0.2-2.3,0.4-4
	l0.2-1.8l0.4-4.1c0.2-2.2,0.5-4.6,0.7-7.2c0.1-1.4,0.3-2.7,0.4-4.1h2.8c0.1,0,0.2,0,0.3,0c0.5,0,2.1-0.2,3.4-1.3
	c-0.3,3.3-0.6,6.6-0.9,9.9c-0.1,0.8-0.2,1.8-0.3,3c-0.1,1.2-0.2,2.4-0.3,3.6c-0.1,1.3-0.2,2.6-0.3,3.8c-0.1,1.3-0.2,2.4-0.3,3.4
	c-0.1,1-0.2,1.9-0.2,2.5c-0.1,1.1-0.1,1.1-0.1,1.3c0,2.5,1.9,4.4,4.4,4.4c0.6,0,1.1-0.1,1.6-0.2c2.5-0.8,4.8-1.7,7-2.5
	c2-0.7,4.1-1.4,6.1-2.1c1.8-0.5,3-1.6,3.6-3.3c0.2-0.6,0.3-1.4,0.4-2.6l0.6-6.3c0.3,1,0.6,1.9,1.1,2.8c1.4,3,3.3,5.5,5.6,7.6
	c2.3,2.1,5,3.7,8,4.8c3,1.1,6.1,1.6,9.2,1.6c1,0,2.2-0.1,3.5-0.3c1.2-0.2,2.5-0.4,3.8-0.7c1.2-0.3,2.5-0.6,3.7-1
	c1.3-0.4,2.4-0.8,3.4-1.2c1.1-0.5,2-0.9,2.7-1.4c2.2-1.4,2.7-3.1,2.7-4.3c0-0.3,0-0.7-0.1-1.1c0-0.1,0-0.2-0.1-0.3c0-1,0-1.9,0-2.7
	c0-0.2,0-0.3,0-0.5c0.7,2,1.6,3.8,2.7,5.5c1.6,2.4,3.6,4.3,5.9,5.7c2.5,1.5,5.3,2.3,8.4,2.3c2.8,0,5.4-0.6,7.9-1.7
	c0.3-0.1,0.5-0.3,0.8-0.4c0.3,0.4,0.7,0.8,1.2,1.2c0.9,0.6,2,0.9,3.1,0.9c0.9,0,1.7-0.1,2.6-0.4c0.5-0.2,0.8-0.3,1.1-0.4l9.8-3.2
	c0.9-0.2,1.9-0.6,2.7-1.2c1.1-0.9,1.7-2.2,1.7-3.6c0-0.1,0-0.3,0-0.4c0,0,0-0.1,0-0.1l4.8-52.4c0-0.1,0-0.2,0-0.3l0-0.1
	c0-0.3,0-0.5,0-0.6C355.8,212,354.8,210.3,353.2,209.5z M69.7,242c-1.3,3.3-2,6.9-2,10.6c0,0.2,0,0.5,0,0.7
	c-0.4-0.1-0.8-0.2-1.2-0.2c-0.6,0-1.3,0.1-2.2,0.5c0,0-0.1,0-0.1,0.1c-0.9,0.5-1.8,0.9-2.5,1.2c-0.7,0.3-1.4,0.5-2.2,0.7
	c-0.8,0.2-1.6,0.3-2.5,0.4c-1,0.1-2.1,0.1-3.4,0.1c-1,0-1.9-0.2-2.6-0.7c-0.9-0.5-1.6-1.2-2.1-2.1c-0.7-1-1.2-2.2-1.5-3.6
	c-0.4-1.5-0.6-3.2-0.6-4.9c0-1.9,0.3-3.6,0.8-5.1c0.5-1.5,1.2-2.7,2-3.8c0.8-1,1.8-1.7,2.9-2.3c1.1-0.5,2.4-0.8,3.8-0.8
	c1.1,0,2.1,0.2,2.9,0.5c1.1,0.4,2.1,0.8,2.9,1.3c0.9,0.5,1.8,1,2.5,1.5c1.2,0.8,2.2,1.3,3.1,1.5c0.1,0,0.1,0,0.2,0.1
	c0.6,0.1,1.2,0.2,1.7,0.2c1,0,1.7-0.2,2.3-0.5C71.1,238.8,70.3,240.3,69.7,242z M181.5,244.5c-0.3,3.3-0.6,6.7-1,10.1
	c-0.1,0.8-0.2,1.8-0.3,3c0,0,0,0,0,0c-0.8-0.7-1.9-1.2-3-1.2c-0.5,0-1.1,0.1-1.7,0.3c-0.3,0.1-0.7,0.2-1.1,0.4
	c-0.8,0.3-1.5,0.6-2.3,0.7c-0.3,0.1-0.6,0.1-0.8,0.2c0-0.2,0-0.5,0-0.9c0.1-2.1,0.3-4.4,0.5-6.9c0.2-1.4,0.3-2.9,0.5-4.3h3.4
	c0.1,0,0.2,0,0.3,0c0.6,0,2.2-0.2,3.5-1.4c0.6-0.5,1-1.2,1.4-2.1c0,0,0,0,0-0.1l0.7-1.7C181.7,242,181.6,243.3,181.5,244.5z
	 M330.2,246.7c-0.1,0.9-0.2,1.7-0.2,2.5l-0.7,7.4c-0.4,0.5-1,1-1.6,1.5c-0.6,0.4-1.5,0.7-2.6,0.8c-0.1-0.2-0.2-0.5-0.4-0.8
	c-0.3-0.8-0.5-1.7-0.6-2.8c-0.1-1.1-0.2-2.3-0.2-3.5c0-0.8,0.1-1.8,0.4-3c0.2-1.1,0.6-2.1,1.1-3.1c0.4-0.8,0.9-1.4,1.5-2
	c0.2-0.2,0.6-0.4,1.4-0.4c0.7,0,1,0.2,1.3,0.4c0.4,0.3,0.7,0.8,1,1.3C330.3,245.5,330.3,246.1,330.2,246.7z"/>
<path d="M94.7,229.2c2.4,0,4.5,0.4,6.4,1.3c1.9,0.9,3.6,2,5,3.4c1.4,1.4,2.4,3,3.2,4.7c0.7,1.7,1.1,3.5,1.1,5.2
	c0,1.5-0.5,3.1-1.4,4.6c-0.9,1.6-2.3,3-4,4.2c-1.7,1.2-3.7,2.3-6.1,3c-2.4,0.8-5,1.2-7.9,1.2c-1.5,0-3.1-0.1-4.7-0.4
	c0.1,1.1,0.4,2,0.9,2.8c0.5,0.8,1.2,1.4,2,1.9c0.8,0.5,1.7,0.9,2.7,1.1c1,0.2,2,0.4,3.1,0.4c1.2,0,2.3-0.1,3.4-0.3
	c1.1-0.2,2.2-0.5,3.2-0.8c1-0.3,2-0.7,2.9-1.2c0.9-0.4,1.8-0.8,2.7-1.3c0.2,0,0.4-0.1,0.6-0.1c0.2,0,0.3-0.1,0.5-0.1
	c0,0.8,0,1.6,0,2.3c0,0.7,0,1.6,0,2.6c0,1,0,2.2-0.1,3.4c0.1,0.1,0.1,0.2,0.1,0.4c0,0.1,0,0.2,0,0.3c0,0.3-0.3,0.6-0.8,1
	c-0.5,0.3-1.3,0.7-2.1,1.1c-0.9,0.4-1.9,0.7-3,1.1c-1.1,0.3-2.3,0.7-3.4,1c-1.2,0.3-2.3,0.5-3.4,0.7c-1.1,0.2-2.1,0.2-2.9,0.2
	c-2.7,0-5.3-0.5-7.8-1.4c-2.5-0.9-4.8-2.3-6.7-4c-2-1.7-3.5-3.9-4.7-6.3c-1.2-2.5-1.8-5.3-1.8-8.4c0-3.3,0.6-6.3,1.7-9.2
	c1.1-2.8,2.7-5.3,4.7-7.4c2-2.1,4.4-3.8,7.3-5S91.3,229.2,94.7,229.2z M94.2,239.1c-1,0-2,0.2-2.8,0.7c-0.9,0.4-1.6,1.1-2.3,1.9
	c-0.7,0.8-1.3,1.8-1.8,2.9c-0.5,1.1-0.9,2.4-1.3,3.7c2.6-0.4,4.7-0.9,6.4-1.4c1.7-0.5,3-1,4.1-1.5c1-0.5,1.7-1,2.2-1.5
	c0.4-0.5,0.6-1,0.6-1.5c0-0.4-0.2-0.9-0.5-1.3c-0.3-0.4-0.8-0.7-1.2-1c-0.5-0.3-1-0.5-1.6-0.7C95.2,239.2,94.7,239.1,94.2,239.1z"/>
<path d="M145.5,240.4c-0.5,0-1.1-0.1-1.8-0.2c-0.6-0.1-1.3-0.1-2.1-0.1c-1.1,0-2.2,0.1-3.3,0.3c-1.1,0.2-2.2,0.6-3.2,1.1
	c-1,0.5-1.8,1.3-2.5,2.3c-0.7,1-1.1,2.2-1.3,3.7c-0.2,1.8-0.3,3.3-0.4,4.5s-0.2,2.2-0.2,2.9c-0.1,0.8-0.1,1.4-0.1,1.8
	c0,0.5-0.1,0.9-0.1,1.3c0,0.1,0,0.4-0.1,0.8c0,0.4-0.1,1-0.2,1.6c-0.1,0.6-0.1,1.2-0.2,1.9c-0.1,0.7-0.1,1.3-0.2,1.9
	c-0.1,0.6-0.1,1.1-0.2,1.6c0,0.4-0.1,0.7-0.1,0.8c0,0.2,0,0.4,0,0.5c0,0.1,0,0.3,0,0.4c0,0.2-0.1,0.4-0.3,0.5
	c-0.2,0.1-0.6,0.3-1.2,0.5l-9.9,3.5c-0.3,0.1-0.6,0.2-1.1,0.4c-0.4,0.1-0.9,0.2-1.3,0.2c-0.3,0-0.7-0.1-0.9-0.3
	c-0.3-0.2-0.4-0.5-0.4-0.9l3.2-37c0.1-0.8,0.2-1.4,0.3-1.7c0.1-0.3,0.4-0.5,0.8-0.6c2.3-0.4,4.6-0.9,7-1.4c2.4-0.5,4.7-1.1,7-1.8
	c0.2,0,0.3,0,0.4,0.1c0,0.1,0.1,0.2,0.1,0.3c0,0.1,0,0.1,0,0.2c0,0.1,0,0.3-0.1,0.7c-0.1,0.3-0.1,0.9-0.3,1.6
	c-0.1,0.7-0.3,1.7-0.5,3c1.1-0.9,2.4-1.7,3.8-2.5c1.4-0.7,2.8-1.4,4.2-1.9c1.4-0.5,2.7-1,4-1.3c1.3-0.3,2.4-0.5,3.4-0.5L145.5,240.4
	z"/>
<path d="M168.8,242c-0.3,2.6-0.7,5.2-1,7.8c-0.3,2.6-0.5,5-0.6,7.3c0,1,0.1,1.8,0.2,2.4c0.1,0.6,0.4,1.2,0.7,1.5
	c0.3,0.4,0.6,0.6,1,0.8c0.4,0.2,0.8,0.2,1.3,0.2c0.8,0,1.7-0.1,2.6-0.4c0.9-0.2,1.9-0.5,2.8-0.9c0.3-0.1,0.6-0.2,0.8-0.3
	c0.2-0.1,0.4-0.1,0.5-0.1c0.2,0,0.4,0.1,0.5,0.3c0.1,0.2,0.2,0.6,0.3,1.2c0.1,0.6,0.2,1.3,0.4,2.3s0.5,2.1,0.9,3.6
	c0,0.1,0,0.2,0.1,0.3c0,0.1,0,0.2,0,0.2c0,0.3-0.1,0.6-0.4,0.7c-0.3,0.1-0.7,0.3-1.3,0.5c-1,0.3-2.1,0.7-3.2,1.1
	c-1.1,0.4-2.3,0.7-3.4,1c-1.1,0.3-2.2,0.5-3.2,0.7c-1,0.2-1.9,0.3-2.7,0.3c-4.2,0-7.2-1-9.1-3.1c-1.9-2.1-2.9-5.2-2.9-9.4
	c0-0.7,0-1.5,0.1-2.2c0-0.8,0.1-1.5,0.2-2.4c0.2-2.5,0.5-4.8,0.7-7.1c0.2-2.2,0.4-4.4,0.6-6.4h-3.9c-1.3,0-2.3-0.1-2.9-0.2
	c-0.6-0.1-0.9-0.3-0.9-0.7c0-0.1,0.1-0.4,0.4-0.8c0.2-0.4,0.6-1,1-1.6c0.4-0.6,0.8-1.3,1.2-2c0.4-0.7,0.9-1.3,1.3-2
	c0.4-0.6,0.8-1.1,1.1-1.6c0.3-0.4,0.5-0.7,0.6-0.8h2.6c0.2-1.9,0.4-3.5,0.5-4.8c0.1-1.3,0.2-2.3,0.3-3.2c0.1-0.8,0.2-1.5,0.2-2
	c0.1-0.5,0.2-0.8,0.2-1c0.1-0.2,0.2-0.4,0.3-0.4c0.1-0.1,0.3-0.1,0.5-0.2c1.1-0.2,2.2-0.4,3.2-0.6c1-0.2,2.1-0.4,3.1-0.6
	c1-0.2,2.1-0.4,3.2-0.7c1.1-0.3,2.2-0.6,3.4-0.9c0.1,0,0.1,0,0.1,0c0,0,0.1,0,0.1,0c0.3,0,0.4,0.1,0.4,0.3v0.1
	c-0.1,1.4-0.3,3.3-0.6,5.7c-0.3,2.4-0.6,5.2-0.9,8.3h10c0.2,0,0.4,0.1,0.6,0.2c0.2,0.1,0.3,0.4,0.3,0.7c0,0.1-0.1,0.6-0.4,1.3
	c-0.3,0.8-0.7,1.8-1.3,3l-1.3,3c-0.2,0.4-0.4,0.6-0.5,0.8c-0.2,0.2-0.6,0.3-1.1,0.3H168.8z"/>
<path d="M184.5,255c0.3-3.4,0.6-6.8,1-10.1c0.3-3.3,0.6-6.7,0.9-10.3c0-0.8,0.1-1.4,0.2-1.7c0.1-0.3,0.4-0.5,0.8-0.6
	c2.1-0.4,4.3-0.9,6.6-1.3c2.3-0.5,4.5-1,6.7-1.8c0.1,0,0.2,0,0.3,0c0.3,0,0.4,0.1,0.4,0.3l-3.4,36.3c-0.1,0.8-0.2,1.4-0.3,1.7
	c-0.1,0.3-0.4,0.5-0.8,0.6c-2.1,0.6-4.3,1.4-6.4,2.2c-2.2,0.8-4.5,1.6-6.9,2.4c-0.1,0-0.2,0-0.3,0c-0.3,0-0.4-0.1-0.4-0.4
	c0,0,0-0.4,0.1-1c0-0.6,0.1-1.5,0.2-2.5c0.1-1,0.2-2.2,0.3-3.4c0.1-1.3,0.2-2.5,0.3-3.8c0.1-1.3,0.2-2.5,0.3-3.7
	C184.4,256.8,184.4,255.8,184.5,255z M187.3,225.2c0.1-1.1,0.1-1.9,0.2-2.5c0-0.6,0.1-1,0.1-1.3c0-0.3,0-0.5,0-0.5
	c0-0.1,0-0.1,0-0.2c0,0,0-0.1,0-0.2c0-0.1,0-0.3,0.1-0.7c0-0.4,0.1-0.9,0.1-1.6c0-0.7,0.1-1.7,0.2-2.9c0-0.8,0.1-1.4,0.2-1.7
	c0.1-0.3,0.4-0.5,0.8-0.6c2.1-0.4,4.3-0.9,6.6-1.3c2.3-0.5,4.5-1.1,6.7-1.8c0.1,0,0.2,0,0.3,0c0.1,0.1,0.2,0.2,0.3,0.3l0.1,0.1
	l-0.8,10.2c-0.1,0.8-0.2,1.4-0.3,1.7c-0.1,0.3-0.4,0.5-0.8,0.6c-2.1,0.4-4.3,0.8-6.4,1.3c-2.2,0.5-4.5,0.9-6.9,1.4
	c-0.1,0-0.2,0-0.3,0C187.5,225.6,187.3,225.5,187.3,225.2z"/>
<path d="M241.3,255c0.3-3.4,0.6-6.8,1-10.1c0.3-3.3,0.6-6.7,0.9-10.3c0-0.8,0.1-1.4,0.2-1.7c0.1-0.3,0.4-0.5,0.8-0.6
	c2.1-0.4,4.3-0.9,6.6-1.3c2.3-0.5,4.5-1,6.7-1.8c0.1,0,0.2,0,0.3,0c0.3,0,0.4,0.1,0.4,0.3l-3.4,36.3c-0.1,0.8-0.2,1.4-0.3,1.7
	c-0.1,0.3-0.4,0.5-0.8,0.6c-2.1,0.6-4.3,1.4-6.4,2.2c-2.2,0.8-4.5,1.6-6.9,2.4c-0.1,0-0.2,0-0.3,0c-0.3,0-0.4-0.1-0.4-0.4
	c0,0,0-0.4,0.1-1c0-0.6,0.1-1.5,0.2-2.5c0.1-1,0.2-2.2,0.3-3.4c0.1-1.3,0.2-2.5,0.3-3.8c0.1-1.3,0.2-2.5,0.3-3.7
	C241.1,256.8,241.2,255.8,241.3,255z"/>
<path d="M285.4,229.2c2.4,0,4.5,0.4,6.4,1.3c1.9,0.9,3.6,2,5,3.4c1.4,1.4,2.4,3,3.2,4.7c0.7,1.7,1.1,3.5,1.1,5.2
	c0,1.5-0.5,3.1-1.4,4.6c-0.9,1.6-2.3,3-4,4.2c-1.7,1.2-3.7,2.3-6.1,3c-2.4,0.8-5,1.2-7.9,1.2c-1.5,0-3.1-0.1-4.7-0.4
	c0.1,1.1,0.4,2,0.9,2.8c0.5,0.8,1.2,1.4,2,1.9c0.8,0.5,1.7,0.9,2.7,1.1c1,0.2,2,0.4,3.1,0.4c1.2,0,2.3-0.1,3.4-0.3
	c1.1-0.2,2.2-0.5,3.2-0.8c1-0.3,2-0.7,2.9-1.2c0.9-0.4,1.8-0.8,2.7-1.3c0.2,0,0.4-0.1,0.6-0.1s0.3-0.1,0.5-0.1c0,0.8,0,1.6,0,2.3
	c0,0.7,0,1.6,0,2.6c0,1,0,2.2-0.1,3.4c0.1,0.1,0.1,0.2,0.1,0.4c0,0.1,0,0.2,0,0.3c0,0.3-0.3,0.6-0.8,1c-0.5,0.3-1.3,0.7-2.1,1.1
	c-0.9,0.4-1.9,0.7-3,1.1c-1.1,0.3-2.3,0.7-3.4,1c-1.2,0.3-2.3,0.5-3.4,0.7s-2.1,0.2-2.9,0.2c-2.7,0-5.3-0.5-7.8-1.4
	c-2.5-0.9-4.8-2.3-6.7-4c-2-1.7-3.5-3.9-4.7-6.3c-1.2-2.5-1.8-5.3-1.8-8.4c0-3.3,0.6-6.3,1.7-9.2c1.1-2.8,2.7-5.3,4.7-7.4
	c2-2.1,4.4-3.8,7.3-5C278.9,229.8,282,229.2,285.4,229.2z M284.9,239.1c-1,0-2,0.2-2.8,0.7c-0.9,0.4-1.6,1.1-2.3,1.9
	c-0.7,0.8-1.3,1.8-1.8,2.9c-0.5,1.1-0.9,2.4-1.3,3.7c2.6-0.4,4.7-0.9,6.4-1.4c1.7-0.5,3-1,4.1-1.5c1-0.5,1.7-1,2.2-1.5
	c0.4-0.5,0.6-1,0.6-1.5c0-0.4-0.2-0.9-0.5-1.3c-0.3-0.4-0.8-0.7-1.2-1c-0.5-0.3-1-0.5-1.6-0.7C285.9,239.2,285.4,239.1,284.9,239.1z
	"/>
<path class="st0" d="M96.4,245.3c1-0.5,1.7-1,2.2-1.5c0.4-0.5,0.6-1,0.6-1.5c0-0.4-0.2-0.9-0.5-1.3c-0.3-0.4-0.8-0.7-1.2-1
	c-0.5-0.3-1-0.5-1.6-0.7c-0.6-0.2-1.1-0.2-1.6-0.2c-1,0-2,0.2-2.8,0.7c-0.9,0.4-1.6,1.1-2.3,1.9c-0.7,0.8-1.3,1.8-1.8,2.9
	c-0.5,1.1-0.9,2.4-1.3,3.7c2.6-0.4,4.7-0.9,6.4-1.4C94,246.4,95.4,245.8,96.4,245.3z"/>
<path class="st0" d="M111.8,256.9c-0.6-1.1-1.7-2-3.1-2.1c1.5-1.3,2.7-2.7,3.6-4.2c0,0,0,0,0,0L111.8,256.9z"/>
<path class="st0" d="M239.2,233.8c-0.1,0.2-0.2,0.6-0.4,1.1c-0.3,0.8-0.7,1.8-1.3,3l-1.3,3c-0.2,0.4-0.4,0.6-0.5,0.8
	c-0.2,0.2-0.6,0.3-1.1,0.3H228c-0.3,2.6-0.5,5.1-0.8,7.7c-0.2,2.5-0.5,4.9-0.7,7.1c-0.2,2.2-0.4,4.2-0.6,5.9c-0.2,1.7-0.3,3.1-0.4,4
	c0,0.1,0,0.2,0,0.4c0,0.1,0,0.2,0,0.3c0,0.1,0,0.1,0,0.2c0,0.2-0.1,0.4-0.2,0.5c-0.2,0.1-0.6,0.3-1.2,0.5l-9.8,3.5
	c-0.3,0.1-0.6,0.2-1.1,0.4c-0.4,0.1-0.9,0.2-1.3,0.2c-0.4,0-0.7-0.1-1-0.3c-0.2-0.2-0.3-0.6-0.3-1.1c0-0.3,0.1-0.9,0.2-1.8
	c0.1-0.9,0.2-2.1,0.3-3.4c0.1-1.4,0.3-3,0.4-4.8c0.2-1.8,0.3-3.7,0.5-5.8c0.2-2.1,0.4-4.2,0.6-6.5c0.2-2.3,0.4-4.5,0.7-6.9h-5
	c-1.3,0-2.3-0.1-2.9-0.2c-0.6-0.1-0.9-0.3-0.9-0.7c0-0.1,0.1-0.4,0.4-0.8c0.2-0.4,0.6-1,1-1.6c0.4-0.6,0.8-1.3,1.2-2
	c0.4-0.7,0.9-1.3,1.3-2c0.4-0.6,0.8-1.1,1.1-1.6c0.3-0.4,0.5-0.7,0.6-0.8h4.5l0.7-5.9c0.3-3.1,1-5.8,1.9-7.9c0.9-2.1,2-3.9,3.4-5.2
	c1.4-1.3,2.9-2.3,4.6-2.8c1.7-0.6,3.6-0.9,5.6-0.9c2,0,4.1,0.2,6.2,0.7c1.5,0.3,3,0.8,4.5,1.3c-0.1,0.1-0.1,0.3-0.2,0.4
	c-0.3,0.7-0.4,1.5-0.5,2.8c-0.1,1.2-0.2,2.2-0.2,2.9c-0.1,0.7-0.1,1.2-0.1,1.6c0,0.2,0,0.3,0,0.4c-0.1,0.3-0.1,0.5-0.1,0.8
	c0,0.1,0,0.2,0,0.3c0,0.1,0,0.3,0,0.6c0,0,0,0,0,0c-0.2-0.1-0.4-0.2-0.6-0.3c-0.9-0.3-1.7-0.6-2.6-0.9c-0.9-0.3-1.7-0.4-2.5-0.4
	c-1.1,0-2.1,0.3-2.9,1c-0.8,0.7-1.4,2-1.9,4c-0.3,1.1-0.5,2.3-0.7,3.6c-0.2,1.3-0.3,2.6-0.4,3.8h9.7c0.2,0,0.4,0.1,0.6,0.2
	c0.2,0.1,0.2,0.3,0.3,0.5C239.2,233.5,239.2,233.6,239.2,233.8z"/>
<path class="st0" d="M242,228.9c-0.3,0.2-0.6,0.4-0.9,0.6c-0.8-0.6-1.8-0.9-2.7-0.9h-5.2c0.1-0.9,0.3-1.7,0.5-2.5
	c0.3-1.3,0.6-1.8,0.7-1.9c0,0,0.1,0,0.2,0c0.4,0,0.9,0.1,1.4,0.2c0.8,0.2,1.5,0.5,2.3,0.7c0.2,0.1,0.3,0.1,0.4,0.2
	c0.5,0.2,1,0.4,1.5,0.4C240.3,227.1,241,228.2,242,228.9z"/>
<path class="st0" d="M259.2,220.5c-0.1,0.8-0.2,1.4-0.3,1.7c-0.1,0.3-0.4,0.5-0.8,0.6c-2.1,0.4-4.3,0.8-6.4,1.3
	c-2.2,0.5-4.5,0.9-6.9,1.4c-0.1,0-0.2,0-0.3,0c-0.3,0-0.4-0.1-0.4-0.4c0-0.3,0-0.5,0.1-0.8c0.1-0.1,0.3-0.3,0.4-0.5
	c0.4-0.5,0.8-1.1,1.1-2.1l0.5-1.2l0.4-1.1c0.3-0.8,0.9-2,1.6-3.4c0.5-0.9,0.7-1.8,0.7-2.6c0-0.4-0.1-0.8-0.2-1.2
	c1.2-0.2,2.5-0.5,3.8-0.7c2.3-0.5,4.5-1.1,6.7-1.8c0.1,0,0.2,0,0.3,0c0.1,0.1,0.2,0.2,0.3,0.3l0.1,0.1L259.2,220.5z"/>
<path class="st0" d="M299.4,254.8c0.6-0.5,1.2-1.1,1.7-1.7c0,0.8,0.1,1.6,0.1,2.4C300.7,255.1,300.1,254.9,299.4,254.8z"/>
<path d="M289.5,255.7c2.4-0.8,4.4-1.8,6.1-3c1.7-1.2,3-2.6,4-4.2c0.9-1.6,1.4-3.1,1.4-4.6c0-1.7-0.4-3.5-1.1-5.2
	c-0.7-1.7-1.8-3.3-3.2-4.7c-1.4-1.4-3-2.5-5-3.4c-1.9-0.9-4.1-1.3-6.4-1.3c-3.4,0-6.5,0.6-9.3,1.8c-2.8,1.2-5.2,2.9-7.3,5
	c-2,2.1-3.6,4.6-4.7,7.4c-1.1,2.8-1.7,5.9-1.7,9.2c0,3.1,0.6,5.9,1.8,8.4c1.2,2.5,2.7,4.6,4.7,6.3c2,1.7,4.2,3.1,6.7,4
	c2.5,0.9,5.1,1.4,7.8,1.4c0.8,0,1.8-0.1,2.9-0.2c1.1-0.2,2.2-0.4,3.4-0.7c1.2-0.3,2.3-0.6,3.4-1c1.1-0.3,2.1-0.7,3-1.1
	c0.9-0.4,1.6-0.7,2.1-1.1c0.5-0.3,0.8-0.7,0.8-1c0-0.1,0-0.2,0-0.3c0-0.1-0.1-0.2-0.1-0.4c0-1.2,0-2.4,0.1-3.4c0-1,0-1.9,0-2.6
	c0-0.7,0-1.5,0-2.3c-0.1,0-0.3,0-0.5,0.1c-0.2,0-0.4,0.1-0.6,0.1c-0.8,0.4-1.7,0.8-2.7,1.3c-0.9,0.4-1.9,0.8-2.9,1.2
	c-1,0.3-2.1,0.6-3.2,0.8c-1.1,0.2-2.3,0.3-3.4,0.3c-1.1,0-2.1-0.1-3.1-0.4c-1-0.2-1.9-0.6-2.7-1.1c-0.8-0.5-1.5-1.1-2-1.9
	c-0.5-0.8-0.8-1.7-0.9-2.8c1.6,0.3,3.2,0.4,4.7,0.4C284.5,256.9,287.1,256.5,289.5,255.7z M276.6,248.3c0.3-1.4,0.7-2.6,1.3-3.7
	c0.5-1.1,1.1-2.1,1.8-2.9c0.7-0.8,1.5-1.4,2.3-1.9c0.9-0.4,1.8-0.7,2.8-0.7c0.5,0,1,0.1,1.6,0.2c0.6,0.2,1.1,0.4,1.6,0.7
	c0.5,0.3,0.9,0.6,1.2,1c0.3,0.4,0.5,0.8,0.5,1.3c0,0.5-0.2,1-0.6,1.5c-0.4,0.5-1.1,1-2.2,1.5c-1,0.5-2.4,1-4.1,1.5
	C281.3,247.3,279.2,247.8,276.6,248.3z"/>
<line class="st0" x1="299" y1="258.8" x2="299" y2="258.8"/>
<path d="M347,267c0,0.1,0,0.1,0,0.2c0,0.1,0,0.1,0,0.2c0,0.1,0,0.2,0,0.3c0,0.1,0,0.1,0,0.2c0,0.2-0.1,0.4-0.2,0.5
	c-0.2,0.1-0.6,0.3-1.2,0.5l-10,3.2c-0.3,0.1-0.6,0.2-1.1,0.4c-0.4,0.1-0.9,0.2-1.3,0.2c-0.3,0-0.7-0.1-0.9-0.3
	c-0.3-0.2-0.4-0.5-0.4-1c0-0.4,0-0.8,0-1.1c0-0.3,0-0.5,0-0.8c0-0.2,0-0.5,0.1-0.8c0-0.3,0.1-0.6,0.1-1.1c-1.9,1.5-3.8,2.7-5.8,3.6
	c-2,0.9-4.1,1.3-6.2,1.3c-2.4,0-4.5-0.6-6.4-1.7c-1.9-1.1-3.4-2.6-4.7-4.5c-1.3-1.9-2.2-4.1-2.9-6.5c-0.7-2.4-1-5-1-7.7
	c0-3.5,0.6-6.6,1.7-9.5c1.1-2.8,2.7-5.3,4.6-7.3c1.9-2,4.2-3.6,6.8-4.7c2.6-1.1,5.3-1.7,8.2-1.7c1.6,0,3.1,0.4,4.5,1.2
	c1.4,0.8,2.8,1.9,4,3.2c0.1-1.2,0.2-2.5,0.3-4c0.1-1.4,0.2-2.9,0.3-4.4c0.1-1.5,0.2-2.9,0.3-4.4c0.1-1.4,0.2-2.8,0.3-4
	c0-0.2,0.1-0.4,0.2-0.5c0.2-0.1,0.6-0.3,1.2-0.5l10.5-2.5c0.3,0,0.6-0.2,1.1-0.3c0.4-0.2,0.9-0.3,1.3-0.3c0.3,0,0.6,0.1,0.9,0.2
	c0.3,0.1,0.4,0.4,0.4,0.9c0,0.1,0,0.2,0,0.3s0,0.3,0,0.3L347,267z M333.9,249.6c0.1-0.8,0.2-1.6,0.2-2.5c0.1-0.9,0.2-1.8,0.3-2.7
	c-0.6-1.5-1.4-2.7-2.4-3.6c-1-0.9-2.3-1.4-3.9-1.4c-1.5,0-2.8,0.4-3.9,1.3c-1.1,0.9-1.9,2-2.6,3.3c-0.6,1.3-1.1,2.7-1.4,4.1
	c-0.3,1.4-0.4,2.7-0.4,3.8c0,1.3,0.1,2.7,0.2,4c0.2,1.3,0.4,2.5,0.8,3.6c0.4,1.1,0.8,1.9,1.4,2.6c0.6,0.7,1.3,1,2.2,1
	c2.2-0.1,4-0.6,5.3-1.5c1.4-0.9,2.5-2,3.3-3.4L333.9,249.6z"/>
<path d="M351.4,213c-0.3-0.1-0.6-0.2-0.9-0.2c-0.4,0-0.9,0.1-1.3,0.3c-0.4,0.2-0.8,0.3-1.1,0.3l-10.5,2.5c-0.7,0.2-1.1,0.3-1.2,0.5
	c-0.2,0.1-0.2,0.3-0.2,0.5c-0.1,1.2-0.2,2.5-0.3,4c-0.1,1.4-0.2,2.9-0.3,4.4c-0.1,1.5-0.2,2.9-0.3,4.4c-0.1,1.4-0.2,2.8-0.3,4
	c-1.3-1.3-2.6-2.3-4-3.2c-1.4-0.8-2.9-1.2-4.5-1.2c-2.9,0-5.7,0.6-8.2,1.7c-2.6,1.1-4.8,2.7-6.8,4.7c-1.9,2-3.5,4.5-4.6,7.3
	c-1.1,2.8-1.7,6-1.7,9.5c0,2.7,0.3,5.2,1,7.7c0.7,2.4,1.6,4.6,2.9,6.5c1.3,1.9,2.8,3.4,4.7,4.5c1.9,1.1,4,1.7,6.4,1.7
	c2.2,0,4.3-0.4,6.2-1.3c2-0.9,3.9-2.1,5.8-3.6c-0.1,0.4-0.1,0.8-0.1,1.1c0,0.3-0.1,0.5-0.1,0.8c0,0.2,0,0.5,0,0.8c0,0.3,0,0.6,0,1.1
	c0,0.5,0.1,0.8,0.4,1c0.3,0.2,0.6,0.3,0.9,0.3c0.4,0,0.9-0.1,1.3-0.2c0.4-0.1,0.8-0.3,1.1-0.4l10-3.2c0.7-0.2,1.1-0.3,1.2-0.5
	s0.2-0.3,0.2-0.5c0-0.1,0-0.1,0-0.2c0-0.1,0-0.2,0-0.3c0,0,0-0.1,0-0.2c0-0.1,0-0.1,0-0.2l4.8-52.5c0,0,0-0.2,0-0.3s0-0.3,0-0.3
	C351.8,213.5,351.7,213.2,351.4,213z M334.2,247.1c-0.1,0.9-0.2,1.7-0.2,2.5l-0.8,8.5c-0.8,1.3-1.9,2.4-3.3,3.4
	c-1.4,0.9-3.1,1.4-5.3,1.5c-0.9,0-1.6-0.3-2.2-1c-0.6-0.7-1.1-1.5-1.4-2.6c-0.4-1.1-0.6-2.3-0.8-3.6c-0.2-1.3-0.2-2.6-0.2-4
	c0-1.1,0.1-2.4,0.4-3.8c0.3-1.4,0.8-2.8,1.4-4.1c0.6-1.3,1.5-2.4,2.6-3.3c1.1-0.9,2.4-1.3,3.9-1.3c1.6,0,2.9,0.5,3.9,1.4
	c1,0.9,1.9,2.1,2.4,3.6C334.4,245.3,334.3,246.2,334.2,247.1z"/>
<path d="M25.9,245.6c0-2.7,0.3-5.4,1-7.9c0.7-2.5,1.6-4.9,2.8-7.1c1.2-2.2,2.7-4.2,4.4-6c1.7-1.8,3.7-3.3,5.8-4.6
	c2.1-1.3,4.5-2.3,7-3c2.5-0.7,5.1-1,7.9-1c2.2,0,4.1,0.1,5.8,0.4c1.7,0.3,3.1,0.6,4.3,1.1c1.2,0.4,2.3,0.9,3.1,1.4
	c0.8,0.5,1.5,1,2.1,1.5c0,0,0,0.1,0,0.3c0,0.4,0,1.1,0.1,2.1c0.1,1,0.1,2.1,0.2,3.3c0.1,1.2,0.2,2.5,0.2,3.7
	c0.1,1.3,0.1,2.3,0.1,3.3c0,0.1,0,0.3-0.1,0.5c-0.1,0.2-0.3,0.3-0.7,0.3c-0.2,0-0.5,0-0.8-0.1c-0.5-0.1-1.2-0.5-2-1
	c-0.8-0.5-1.7-1.1-2.8-1.7c-1.1-0.6-2.2-1.1-3.5-1.6c-1.3-0.5-2.7-0.7-4.3-0.7c-2,0-3.9,0.4-5.6,1.2c-1.7,0.8-3.1,1.9-4.3,3.3
	c-1.2,1.4-2.1,3.1-2.7,5.1c-0.6,2-1,4.1-1,6.4c0,2,0.2,4,0.7,5.8c0.4,1.9,1.1,3.5,2,4.9c0.9,1.4,2,2.5,3.4,3.3
	c1.4,0.8,2.9,1.2,4.7,1.2c1.4,0,2.7,0,3.8-0.1c1.1-0.1,2.1-0.3,3.1-0.5c0.9-0.2,1.9-0.5,2.8-0.9c0.9-0.4,1.9-0.8,2.9-1.4
	c0,0,0.2,0,0.4,0c0.2,0,0.3,0.1,0.4,0.2c0.1,0.1,0.1,0.4,0.1,0.8v4.5c0,0.8,0,1.6,0,2.4c0,0.8,0,1.5,0,2.1c0,0.6,0,1.1,0,1.5
	c0,0.4,0,0.6-0.1,0.6c-1.1,0.7-2.4,1.3-3.7,1.8c-1.3,0.5-2.6,0.8-4,1.1c-1.4,0.3-2.8,0.4-4.2,0.5c-1.4,0.1-2.7,0.1-4,0.1
	c-3.5,0-6.8-0.7-9.8-2c-3.1-1.3-5.7-3.2-8-5.6c-2.3-2.4-4-5.2-5.3-8.6C26.5,253.2,25.9,249.6,25.9,245.6z"/>
<path d="M54.7,216c2.2,0,4.1,0.1,5.8,0.4c1.7,0.3,3.1,0.6,4.3,1.1c1.2,0.4,2.3,0.9,3.1,1.4c0.8,0.5,1.5,1,2.1,1.5c0,0,0,0.1,0,0.3
	c0,0.4,0,1.1,0.1,2.1c0.1,1,0.1,2.1,0.2,3.3c0.1,1.2,0.2,2.5,0.2,3.7c0.1,1.3,0.1,2.3,0.1,3.3c0,0.1,0,0.3-0.1,0.5
	c-0.1,0.2-0.3,0.3-0.7,0.3c-0.2,0-0.5,0-0.8-0.1c-0.5-0.1-1.2-0.5-2-1c-0.8-0.5-1.7-1.1-2.8-1.7c-1.1-0.6-2.2-1.1-3.5-1.6
	c-1.3-0.5-2.7-0.7-4.3-0.7c-2,0-3.9,0.4-5.6,1.2c-1.7,0.8-3.1,1.9-4.3,3.3c-1.2,1.4-2.1,3.1-2.7,5.1c-0.6,2-1,4.1-1,6.4
	c0,2,0.2,4,0.7,5.8c0.4,1.9,1.1,3.5,2,4.9c0.9,1.4,2,2.5,3.4,3.3c1.4,0.8,2.9,1.2,4.7,1.2c1.4,0,2.7,0,3.8-0.1
	c1.1-0.1,2.1-0.3,3.1-0.5c0.9-0.2,1.9-0.5,2.8-0.9c0.9-0.4,1.9-0.8,2.9-1.4c0,0,0.2,0,0.4,0c0.2,0,0.3,0.1,0.4,0.2
	c0.1,0.1,0.1,0.4,0.1,0.8v4.5c0,0.8,0,1.6,0,2.4c0,0.8,0,1.5,0,2.1c0,0.6,0,1.1,0,1.5c0,0.4,0,0.6-0.1,0.6c-1.1,0.7-2.4,1.3-3.7,1.8
	c-1.3,0.5-2.6,0.8-4,1.1c-1.4,0.3-2.8,0.4-4.2,0.5c-1.4,0.1-2.7,0.1-4,0.1c-3.5,0-6.8-0.7-9.8-2c-3.1-1.3-5.7-3.2-8-5.6
	c-2.3-2.4-4-5.2-5.3-8.6c-1.3-3.3-1.9-7-1.9-11c0-2.7,0.3-5.4,1-7.9c0.7-2.5,1.6-4.9,2.8-7.1c1.2-2.2,2.7-4.2,4.4-6
	c1.7-1.8,3.7-3.3,5.8-4.6c2.1-1.3,4.5-2.3,7-3C49.3,216.4,52,216,54.7,216"/>
<path d="M244.1,225.2c0.1-1.1,0.1-1.9,0.2-2.5c0-0.6,0.1-1,0.1-1.3c0-0.3,0-0.5,0-0.5c0-0.1,0-0.1,0-0.2c0,0,0-0.1,0-0.2
	c0-0.1,0-0.3,0.1-0.7c0-0.4,0.1-0.9,0.1-1.6c0-0.7,0.1-1.7,0.2-2.9c0-0.8,0.1-1.4,0.2-1.7c0.1-0.3,0.4-0.5,0.8-0.6
	c2.1-0.4,4.3-0.9,6.6-1.3c2.3-0.5,4.5-1.1,6.7-1.8c0.1,0,0.2,0,0.3,0c0.1,0.1,0.2,0.2,0.3,0.3l0.1,0.1l-0.8,10.2
	c-0.1,0.8-0.2,1.4-0.3,1.7c-0.1,0.3-0.4,0.5-0.8,0.6c-2.1,0.4-4.3,0.8-6.4,1.3c-2.2,0.5-4.5,0.9-6.9,1.4c-0.1,0-0.2,0-0.3,0
	C244.2,225.6,244.1,225.5,244.1,225.2z"/>
<path d="M210.6,271.3c0-0.3,0.1-0.9,0.2-1.8c0.1-0.9,0.2-2.1,0.3-3.4c0.1-1.4,0.3-3,0.4-4.8c0.2-1.8,0.3-3.7,0.5-5.8
	c0.2-2.1,0.4-4.2,0.6-6.5c0.2-2.3,0.4-4.5,0.7-6.9h-5c-1.3,0-2.3-0.1-2.9-0.2c-0.6-0.1-0.9-0.3-0.9-0.7c0-0.1,0.1-0.4,0.4-0.8
	c0.2-0.4,0.6-1,1-1.6c0.4-0.6,0.8-1.3,1.2-2c0.4-0.7,0.9-1.3,1.3-2c0.4-0.6,0.8-1.1,1.1-1.6c0.3-0.4,0.5-0.7,0.6-0.8h4.5l0.7-5.9
	c0.3-3.1,1-5.8,1.9-7.9c0.9-2.1,2-3.9,3.4-5.2c1.4-1.3,2.9-2.3,4.6-2.8c1.7-0.6,3.6-0.9,5.6-0.9c2,0,4.1,0.2,6.2,0.7
	c2.1,0.5,4.3,1.1,6.5,2c0.5,0.2,0.8,0.4,1.1,0.5c0.2,0.1,0.4,0.3,0.4,0.5c0,0.2-0.1,0.5-0.3,0.8c-0.8,1.5-1.4,2.8-1.8,3.7
	c-0.4,0.9-0.7,1.7-0.9,2.2c-0.2,0.5-0.4,0.9-0.6,1.1c-0.1,0.2-0.4,0.3-0.7,0.3c-0.1,0-0.3,0-0.5-0.1c-0.2-0.1-0.4-0.2-0.6-0.3
	c-0.9-0.3-1.7-0.6-2.6-0.9c-0.9-0.3-1.7-0.4-2.5-0.4c-1.1,0-2.1,0.3-2.9,1c-0.8,0.7-1.4,2-1.9,4c-0.3,1.1-0.5,2.3-0.7,3.6
	c-0.2,1.3-0.3,2.6-0.4,3.8h9.7c0.2,0,0.4,0.1,0.6,0.2c0.2,0.1,0.3,0.4,0.3,0.7c0,0.1-0.1,0.6-0.4,1.3c-0.3,0.8-0.7,1.8-1.3,3l-1.3,3
	c-0.2,0.4-0.4,0.6-0.5,0.8c-0.2,0.2-0.6,0.3-1.1,0.3H228c-0.3,2.6-0.5,5.1-0.8,7.7c-0.2,2.5-0.5,4.9-0.7,7.1
	c-0.2,2.2-0.4,4.2-0.6,5.9c-0.2,1.7-0.3,3.1-0.4,4c0,0.1,0,0.2,0,0.4c0,0.1,0,0.2,0,0.3c0,0.1,0,0.1,0,0.2c0,0.2-0.1,0.4-0.2,0.5
	c-0.2,0.1-0.6,0.3-1.2,0.5l-9.8,3.5c-0.3,0.1-0.6,0.2-1.1,0.4c-0.4,0.1-0.9,0.2-1.3,0.2c-0.4,0-0.7-0.1-1-0.3
	C210.7,272.2,210.6,271.9,210.6,271.3z"/>
</svg>
